<svg width="171" height="47" viewBox="0 0 171 47" fill="none" xmlns="http://www.w3.org/2000/svg">
<path fill-rule="evenodd" clip-rule="evenodd" d="M21.8696 35.0664C22.6657 36.0321 23.5219 36.9507 24.4332 37.8172C28.6962 41.8707 34.1597 44.7829 40.2568 46.0184V42.3773C35.1915 41.2045 30.6531 38.7121 27.0726 35.3075C25.8969 34.1895 24.8245 32.9733 23.8708 31.6733L21.8696 35.0664Z" fill="#E51F2F"/>
<path fill-rule="evenodd" clip-rule="evenodd" d="M8.64697 31.2747C12.6382 27.4793 15.1155 22.246 15.1155 16.4905L15.1161 0.552856H18.8488L18.8494 16.4905C18.8494 19.2932 19.3171 22.578 20.1745 25.1231C21.032 22.578 21.5 19.2932 21.5 16.4905L21.5004 0.552856H25.2332L25.2336 16.4905C25.2336 22.246 27.711 27.4793 31.7024 31.2747C34.0838 33.539 37.0036 35.2901 40.2568 36.3353V40.0522C35.9722 38.8955 32.134 36.7046 29.063 33.7845C26.7551 31.5899 24.8808 28.9833 23.5752 26.0945C22.601 28.598 21.5259 30.9678 20.1833 32.7727L20.1746 32.7847L20.1658 32.7727C18.8235 30.9678 17.7482 28.598 16.774 26.0945C15.4684 28.9833 13.594 31.5899 11.2859 33.7845C8.21538 36.7046 4.37694 38.8955 0.0925293 40.0522V36.3353C3.34576 35.2901 6.26557 33.539 8.64697 31.2747Z" fill="#E51F2F"/>
<path fill-rule="evenodd" clip-rule="evenodd" d="M31.2018 16.1574C31.2018 20.3508 33.0073 24.1644 35.9161 26.9303C37.1757 28.1278 38.6417 29.1285 40.257 29.8785V33.744C37.6162 32.7883 35.2416 31.3084 33.2767 29.4401C29.693 26.0327 27.4688 21.3308 27.4688 16.1574V12.5664H31.2018V16.1574Z" fill="#E51F2F"/>
<path fill-rule="evenodd" clip-rule="evenodd" d="M9.14752 12.5664H12.8806V16.1574C12.8806 21.3308 10.6563 26.0327 7.07269 29.4401C5.10771 31.3084 2.73352 32.7883 0.0925293 33.744V29.8785C1.70788 29.1285 3.17379 28.1278 4.43335 26.9303C7.34215 24.1644 9.14752 20.3508 9.14752 16.1574V12.5664Z" fill="#E51F2F"/>
<path fill-rule="evenodd" clip-rule="evenodd" d="M16.4783 31.6733C15.5246 32.9733 14.4523 34.1895 13.2767 35.3075C9.696 38.7121 5.15783 41.2045 0.0925293 42.3773V46.0184C6.18963 44.7829 11.653 41.8707 15.916 37.8172C16.8273 36.9507 17.6834 36.0321 18.4795 35.0664L16.4783 31.6733Z" fill="#E51F2F"/>
<path fill-rule="evenodd" clip-rule="evenodd" d="M56.4707 36.9928H56.3804L53.823 24.9589H49.9724V46.0184H53.1312V36.9928L52.5594 30.9758H52.7101L54.9666 41.8067H57.9146L60.111 30.9758H60.2612L59.75 36.9928V46.0184H62.9089V24.9589H59.0578L56.4707 36.9928ZM67.8729 43.0098V27.9675H71.0318V43.0098H67.8729ZM72.8066 46.0185C73.6491 46.0185 74.1907 45.4468 74.1907 44.6343V26.343C74.1907 25.5309 73.6491 24.9589 72.8066 24.9589H66.0979C65.2554 24.9589 64.7139 25.5309 64.7139 26.343V44.6343C64.7139 45.4468 65.2554 46.0185 66.0979 46.0185H72.8066ZM85.1714 46.0185V39.0989H82.0126V43.0098H79.1547V27.9675H82.0126V30.9759H85.1714V24.9589H77.3796C76.5372 24.9589 75.9957 25.5309 75.9957 26.343V44.6343C75.9957 45.4468 76.5372 46.0185 77.3796 46.0185L85.1714 46.0185ZM86.8264 24.9589V46.0184H89.985V27.9675H94.3477V24.9589H86.8264ZM98.7094 43.0098V27.9675H101.868V43.0098H98.7094ZM103.643 46.0185C104.486 46.0185 105.027 45.4468 105.027 44.6343V26.343C105.027 25.5309 104.486 24.9589 103.643 24.9589H96.9346C96.0921 24.9589 95.5508 25.5309 95.5508 26.343V44.6343C95.5508 45.4468 96.0921 46.0185 96.9346 46.0185H103.643ZM109.991 27.9675H113V36.0906H109.991V27.9675ZM114.775 39.0989C115.617 39.0989 116.159 38.5272 116.159 37.7151V26.343C116.159 25.5309 115.617 24.9589 114.775 24.9589H106.832V46.0185H109.991V39.0989L114.775 39.0989ZM126.989 46.0185V39.0989H123.83V43.0098H120.972V27.9675H123.83V30.9759H126.989V24.9589H119.197C118.355 24.9589 117.813 25.5309 117.813 26.343V44.6343C117.813 45.4468 118.355 46.0185 119.197 46.0185L126.989 46.0185ZM128.644 24.9589V46.0184H131.803V27.9675H135.112V46.0184H138.271V24.9589H128.644ZM143.235 43.0098V27.9675H146.394V43.0098H143.235ZM148.169 46.0185C149.011 46.0185 149.552 45.4468 149.552 44.6343V26.343C149.552 25.5309 149.011 24.9589 148.169 24.9589H141.46C140.617 24.9589 140.076 25.5309 140.076 26.343V44.6343C140.076 45.4468 140.617 46.0185 141.46 46.0185H148.169ZM154.516 27.9675H157.525V36.0906H154.516V27.9675ZM159.3 39.0989C160.142 39.0989 160.684 38.5272 160.684 37.7151V26.343C160.684 25.5309 160.142 24.9589 159.3 24.9589H151.357V46.0185H154.516V39.0989L159.3 39.0989ZM161.737 27.9675H164.745V46.0185H167.904V27.9675H170.912V24.9589H161.737V27.9675Z" fill="#E51F2F"/>
</svg>
