<svg width="161" height="49" viewBox="0 0 161 49" fill="none" xmlns="http://www.w3.org/2000/svg">
<path d="M88.1481 25.2979H85.1103V5.42794H88.1481V13.2152L88.6525 13.2165C90.2997 13.2207 90.8312 11.4299 90.8312 10.1008V5.42794H93.869V9.97227C93.869 12.0628 93.0958 13.6288 91.5905 14.6549C93.2206 15.8059 93.869 17.2472 93.869 19.3375V25.2979H90.8312V19.2091C90.8312 17.9224 90.2211 16.3634 88.6771 16.3761L88.1481 16.3803V25.2979ZM139.71 25.2979V5.42794H142.416V17.0383L145.536 5.42794H148.923V25.2979H146.189V11.4728L142.46 25.3231L139.71 25.2979ZM151.074 25.2979V5.42794H153.78V17.0383L156.901 5.42794H160.287V25.2979H157.553V11.4728L153.824 25.3231L151.074 25.2979ZM159.022 0.718872V3.04656H152.339V0.718872H159.022ZM131.979 25.2979H128.942V5.42794H131.979V13.2152L132.484 13.2165C134.131 13.2207 134.662 11.4299 134.662 10.1008V5.42794H137.7V9.97227C137.7 12.0628 136.927 13.6288 135.422 14.6549C137.052 15.8059 137.7 17.2472 137.7 19.3375V25.2979H134.662V19.2091C134.662 17.9224 134.052 16.3634 132.508 16.3761L131.979 16.3803V25.2979ZM76.9809 25.2623H73.9431V5.39233H82.9595V13.367H79.8665V8.23094H76.9809V22.4237H79.8665V17.2875H82.9595V25.2623H76.9809ZM120.812 25.2623H117.774V5.39233H126.791V13.367H123.698V8.23094H120.812V22.4237H123.698V17.2875H126.791V25.2623H120.812ZM68.6992 8.23094H65.8688V22.4237H68.6992V8.23094ZM65.8137 25.2623H62.7759V5.39233H71.7922V25.2623H65.8137ZM101.943 8.23094H99.1129V22.4237H101.943V8.23094ZM99.0576 25.2623H96.0198V5.39233H105.036V25.2623H99.0576ZM110.225 8.23094V13.5591C111.357 13.6215 112.727 13.5539 112.727 11.5273V9.71971H112.726V8.23094H110.225ZM110.225 16.4042V22.4237H112.726C112.726 21.1354 112.727 19.8499 112.727 18.5609C112.727 16.5342 111.357 16.3418 110.225 16.4042ZM115.765 8.8924V11.3285C115.765 12.9126 115.111 14.0647 114.071 14.8073C115.187 15.6903 115.765 17.0612 115.765 18.7597V25.2623C113.919 25.2623 112.072 25.2557 110.225 25.2553V25.2623H107.187V5.39232H110.225V5.39933C112.072 5.39885 113.919 5.39232 115.765 5.39232V8.8924ZM54.2322 18.7044C55.0269 14.4548 56.0632 9.7115 56.5415 5.42794H60.6251V25.2979H57.9739V17.4368L58.2862 10.3344C57.9058 12.6192 56.4125 21.0405 54.5154 25.0751V25.0875H53.949V25.0751C52.0519 21.0405 50.5586 12.6192 50.1782 10.3344L50.4905 17.4368V25.2979H47.8394V5.42794H51.9229C52.4012 9.7115 53.4375 14.4548 54.2322 18.7044Z" fill="#E52330"/>
<path d="M84.2647 31.259V40.1104C85.3972 40.1728 86.7672 39.9804 86.7672 37.9538V36.1462H86.7656V31.259L84.2647 31.259ZM89.805 35.3188V37.755C89.805 40.8122 88.2237 42.9489 85.2761 42.9489H84.2647V48.2903H81.2271V28.4204C84.0854 28.4363 86.9462 28.4204 89.805 28.4204V35.3188ZM90.6404 28.4204H100.03V31.259H96.854V48.2903H93.8163V31.259H90.6404V28.4204ZM76.069 31.259H73.2386V45.4518H76.069V31.259ZM73.1834 48.2903H70.1457V28.4204H79.162V48.2903H73.1834ZM50.8772 48.2903H47.8394V28.4204H56.8558V36.3951H53.7628V31.259H50.8772V45.4518H53.7628V40.3156H56.8558V48.2903L50.8772 48.2903ZM62.033 48.2903H58.9952V28.4204H68.0116V48.2903H64.9185V31.259H62.033V48.2903Z" fill="#E52330"/>
<path d="M21.3237 37.957C22.0748 38.868 22.8827 39.7349 23.7424 40.5524C27.7648 44.377 32.9198 47.1248 38.6726 48.2904V44.8551C33.8933 43.7485 29.6113 41.3968 26.2329 38.1845C25.1236 37.1297 24.1117 35.9821 23.2119 34.7556L21.3237 37.957Z" fill="#E52330"/>
<path d="M8.84753 34.3793C12.6135 30.7983 14.951 25.8604 14.951 20.4301L14.9515 5.39233H18.4734L18.4739 20.4301C18.4739 23.0745 18.9154 26.1736 19.7244 28.5751C20.5333 26.1736 20.9749 23.0745 20.9749 20.4301L20.9753 5.39233H24.4973L24.4977 20.4301C24.4977 25.8604 26.8352 30.7983 30.6012 34.3793C32.848 36.5156 35.603 38.1681 38.6726 39.1541V42.6614C34.63 41.5697 31.0084 39.5025 28.111 36.7474C25.9334 34.6768 24.1649 32.2174 22.9329 29.4917C22.0137 31.8535 20.9993 34.0898 19.7326 35.7928L19.7244 35.8041L19.7161 35.7928C18.4494 34.0898 17.435 31.8536 16.5158 29.4917C15.2839 32.2174 13.5153 34.6768 11.3378 36.7474C8.44033 39.5025 4.81869 41.5697 0.776123 42.6614V39.1541C3.84569 38.1681 6.60066 36.5156 8.84753 34.3793Z" fill="#E52330"/>
<path d="M30.1288 20.1157C30.1288 24.0723 31.8324 27.6706 34.577 30.2803C35.7653 31.4102 37.1485 32.3543 38.6727 33.0621V36.7093C36.1809 35.8075 33.9405 34.4112 32.0865 32.6483C28.7053 29.4332 26.6064 24.9969 26.6064 20.1157V16.7274H30.1288V20.1157Z" fill="#E52330"/>
<path d="M9.31995 16.7274H12.8423V20.1157C12.8423 24.9969 10.7435 29.4332 7.36224 32.6483C5.50829 34.4112 3.26797 35.8075 0.776123 36.7093V33.0621C2.30025 32.3543 3.68352 31.4102 4.87183 30.2803C7.61638 27.6706 9.31995 24.0723 9.31995 20.1157V16.7274Z" fill="#E52330"/>
<path d="M16.2368 34.7556C15.337 35.9821 14.3251 37.1297 13.2158 38.1845C9.83745 41.3968 5.55539 43.7485 0.776123 44.8551V48.2904C6.52901 47.1248 11.6839 44.377 15.7063 40.5524C16.566 39.7349 17.3739 38.868 18.125 37.957L16.2368 34.7556Z" fill="#E52330"/>
</svg>
