<svg width="217" height="217" viewBox="0 0 217 217" fill="none" xmlns="http://www.w3.org/2000/svg">
<path d="M133.938 35.962L131.623 43.1412L130.548 42.7936L132.532 36.6397L131.405 36.2755L129.422 42.4291L128.346 42.0811L130.661 34.902L133.938 35.962Z" fill="#E52031"/>
<path d="M132.828 43.592C132.548 43.4815 132.442 43.2202 132.548 42.9493L134.939 36.8527C135.045 36.5821 135.301 36.4624 135.581 36.5729L137.813 37.4512C138.094 37.5616 138.199 37.823 138.093 38.0935L135.702 44.1901C135.596 44.461 135.341 44.5807 135.061 44.4702L132.828 43.592ZM134.863 43.2351L136.83 38.2215L135.778 37.808L133.812 42.8216L134.863 43.2351Z" fill="#E52031"/>
<path d="M138.566 46.0347C138.297 45.9001 138.215 45.6301 138.344 45.3701L141.267 39.5094C141.397 39.249 141.661 39.1525 141.93 39.2875L144.423 40.5344L143.461 42.4622L142.451 41.9567L142.932 40.9928L142.017 40.5353L139.614 45.3551L140.528 45.8125L141.153 44.5593L142.164 45.0648L141.058 47.2819L138.566 46.0347Z" fill="#E52031"/>
<path d="M142.79 48.2534L141.494 47.5066L142.03 46.5727L142.403 46.7875L145.938 41.3655L148.325 42.7407L144.571 49.2794L143.592 48.7153L146.809 43.1109L146.324 42.8317L142.79 48.2534Z" fill="#E52031"/>
<path d="M149.362 43.385L151.707 44.9133L151.12 45.8167L149.723 44.9054L148.725 46.4409L150.077 47.3227L149.491 48.2261L148.137 47.3443L146.788 49.4217L148.186 50.3328L147.599 51.2362L145.254 49.7076L149.362 43.385Z" fill="#E52031"/>
<path d="M155.335 47.5318L151.515 52.7421L151.819 52.9653L150.596 54.6327L149.686 53.9632L150.272 53.1642L148.928 52.1758L148.342 52.9748L147.432 52.3054L148.654 50.638L149.001 50.893L153.176 45.944L155.335 47.5318ZM150.605 52.0727L153.788 47.7304L153.397 47.4436L149.92 51.5691L150.605 52.0727Z" fill="#E52031"/>
<path d="M159.018 50.5377L154.208 56.3382L153.339 55.6153L154.92 53.7095L154.092 53.021L152.512 54.9268L151.643 54.2042L156.453 48.4037L159.018 50.5377ZM157.462 50.6434L156.635 49.9552L154.779 52.1924L155.607 52.8809L157.462 50.6434Z" fill="#E52031"/>
<path d="M162.351 53.6281L163.347 54.5792L158.154 60.0385L157.337 59.2583L159.563 56.9186L161.178 55.4852L161.139 55.4479L157.901 57.7132L157.137 56.9848L159.224 53.6201L159.185 53.5829L157.85 55.2837L155.624 57.6234L154.807 56.8431L159.999 51.3839L160.996 52.335L158.691 56.0865L158.713 56.1088L162.351 53.6281Z" fill="#E52031"/>
<path d="M162.439 64.8538L161.66 63.9485L163.701 60.877L163.511 60.6567L160.824 62.9776L160.087 62.1213L165.787 57.1981L166.525 58.0547L164.326 59.9535L164.537 60.1983L167.36 59.0253L168.14 59.9309L164.776 61.3003L162.439 64.8538Z" fill="#E52031"/>
<path d="M164.184 67.1282L163.256 65.9118L164.111 65.2574L164.464 65.7199L165.712 65.0489L165.222 64.4065L168.594 60.4822L169.293 61.3987L166.64 64.4886L166.672 64.5313L170.234 62.6318L170.914 63.5228L164.184 67.1282Z" fill="#E52031"/>
<path d="M165.808 69.3966L164.967 68.1577L165.857 67.5519L166.098 67.9085L171.643 64.5765L173.191 66.8583L166.963 71.099L166.328 70.1631L171.666 66.5282L171.352 66.0647L165.808 69.3966Z" fill="#E52031"/>
<path d="M167.396 71.783L173.861 67.9182L174.44 68.8897L172.039 70.325L172.888 71.7499C173.042 72.009 172.965 72.2802 172.716 72.4295L169.502 74.3506C169.253 74.4996 168.978 74.4381 168.824 74.179L167.396 71.783ZM168.899 72.2022L169.422 73.0811L171.639 71.7559L171.115 70.8774L168.899 72.2022Z" fill="#E52031"/>
<path d="M175.842 71.2743L177.378 74.178L176.428 74.6823L175.924 73.7305L170.222 76.7565L169.693 75.7569L175.396 72.7306L174.892 71.7788L175.842 71.2743Z" fill="#E52031"/>
<path d="M171.962 80.359L171.323 78.9692L172.3 78.5184L172.543 79.0472L173.908 78.6668L173.571 77.9327L177.718 74.8456L178.2 75.8932L174.935 78.324L174.957 78.373L178.847 77.3028L179.315 78.3208L171.962 80.359Z" fill="#E52031"/>
<path d="M175.393 82.1336L173.089 83.0329L172.679 81.9789L179.693 79.2423L180.724 81.892C180.832 82.1731 180.712 82.4281 180.442 82.5338L176.654 84.0114C176.384 84.1171 176.123 84.0105 176.014 83.7294L175.393 82.1336ZM176.395 81.7428L176.786 82.7464L179.491 81.6908L179.101 80.6872L176.395 81.7428Z" fill="#E52031"/>
<path d="M175.557 88.6128C175.28 88.6994 175.027 88.5753 174.938 88.2875L174.155 85.7775L181.343 83.5286L181.679 84.6086L179.01 85.4439L179.455 86.8735C179.546 87.1616 179.408 87.4079 179.13 87.4945L175.557 88.6128ZM175.213 89.1721L182.401 86.9228L182.738 88.0029L175.55 90.2519L175.213 89.1721ZM175.518 86.5364L175.775 87.3593L178.239 86.588L177.983 85.7651L175.518 86.5364Z" fill="#E52031"/>
<path d="M137.479 59.8912L134.577 51.5378C156.865 61.7069 171.635 84.2048 171.056 109.876L164.859 112.029C166.255 89.9711 155.106 70.3758 137.479 59.8912ZM148.307 125.949L145.77 133.25L217 108.5L176.789 94.528L179.326 101.829L198.526 108.5C154.279 123.876 180.924 114.616 148.307 125.949ZM89.2877 55.295C80.9192 79.376 83.4313 72.1476 77.9842 87.823L98.95 80.5388C105.11 78.3942 111.893 78.3942 118.053 80.5388L155.918 93.6949L153.381 86.3948L120.044 74.8117C112.6 72.2234 104.401 72.2234 96.9575 74.8117L87.8199 77.9867L108.499 18.4745C118.921 48.4607 113.889 33.9831 125.952 68.6941L133.251 71.2305C121.279 36.7813 126.45 51.661 108.499 0L91.7705 48.1491C73.7748 53.1497 59.1842 65.7527 51.5584 82.4157L59.918 79.5112C66.5583 68.3741 76.8757 59.7796 89.2877 55.295ZM127.711 161.711C135.98 137.912 133.54 144.935 139.014 129.178L118.053 136.462C111.893 138.606 105.11 138.606 98.95 136.462L61.082 123.304L63.6191 130.605C97.506 142.379 78.2292 135.679 96.9575 142.188C104.401 144.775 112.6 144.777 120.044 142.188L129.181 139.014L108.499 198.526C98.0799 168.54 103.104 183.001 91.049 148.306L83.7494 145.769C96.156 181.472 90.382 164.854 108.499 217L125.238 168.827C143.229 163.851 157.811 151.257 165.431 134.588L157.108 137.48C150.468 148.638 140.138 157.245 127.711 161.711ZM52.1477 104.969L45.9492 107.122C45.3637 132.9 60.2578 155.281 82.4086 165.423L79.5041 157.063C62.249 146.769 50.7776 127.466 52.1477 104.969ZM68.694 91.051L71.23 83.7511C64.8882 85.9542 7.32703 105.954 0 108.5L40.2106 122.471L37.6739 115.171L18.4737 108.5C63.799 92.7523 49.829 97.6039 68.694 91.051Z" fill="url(#paint0_linear_1365_2183)"/>
<path d="M109.806 114.206C110.392 114.919 111.024 115.597 111.695 116.236C114.837 119.229 118.863 121.379 123.357 122.291V119.603C119.624 118.737 116.279 116.897 113.64 114.384C112.774 113.558 111.984 112.66 111.281 111.701L109.806 114.206Z" fill="#E52031"/>
<path d="M100.061 111.406C103.002 108.605 104.828 104.741 104.828 100.492V88.7266H107.579L107.58 100.492C107.58 102.561 107.925 104.986 108.557 106.865C109.188 104.986 109.533 102.561 109.533 100.492L109.534 88.7266H112.285L112.285 100.492C112.285 104.741 114.111 108.605 117.052 111.406C118.807 113.078 120.959 114.371 123.357 115.142V117.886C120.199 117.032 117.37 115.415 115.107 113.259C113.406 111.639 112.025 109.715 111.063 107.582C110.345 109.43 109.552 111.18 108.563 112.512L108.557 112.521L108.55 112.512C107.561 111.18 106.768 109.43 106.05 107.582C105.088 109.715 103.707 111.639 102.006 113.259C99.7428 115.415 96.9139 117.032 93.7563 117.886V115.142C96.154 114.371 98.3059 113.078 100.061 111.406Z" fill="#E52031"/>
<path d="M116.683 100.246C116.683 103.342 118.014 106.157 120.158 108.199C121.086 109.083 122.166 109.822 123.357 110.376V113.229C121.41 112.524 119.66 111.431 118.212 110.052C115.571 107.537 113.932 104.066 113.932 100.246V97.5953H116.683V100.246Z" fill="#E52031"/>
<path d="M100.43 97.5953H103.181V100.246C103.181 104.066 101.542 107.537 98.9007 110.052C97.4526 111.431 95.7027 112.524 93.7563 113.229V110.376C94.9468 109.822 96.0272 109.083 96.9554 108.199C99.0991 106.157 100.43 103.342 100.43 100.246V97.5953Z" fill="#E52031"/>
<path d="M105.833 111.701C105.13 112.66 104.339 113.558 103.473 114.384C100.834 116.897 97.4894 118.737 93.7563 119.603V122.291C98.2498 121.379 102.276 119.229 105.418 116.236C106.09 115.597 106.721 114.919 107.307 114.206L105.833 111.701Z" fill="#E52031"/>
<defs>
<linearGradient id="paint0_linear_1365_2183" x1="80.1526" y1="12.6811" x2="139.648" y2="213.785" gradientUnits="userSpaceOnUse">
<stop stop-color="#F0AC2C"/>
<stop offset="1" stop-color="#EC8C2C"/>
</linearGradient>
</defs>
</svg>
