<svg width="480" height="631" viewBox="0 0 480 631" fill="none" xmlns="http://www.w3.org/2000/svg">
<g clip-path="url(#clip0_1372_1964)">
<mask id="mask0_1372_1964" style="mask-type:luminance" maskUnits="userSpaceOnUse" x="-202" y="0" width="831" height="631">
<path d="M629 0H-202V631H629V0Z" fill="white"/>
</mask>
<g mask="url(#mask0_1372_1964)">
<path d="M1042.3 -141.415H-620.828V868.882H1042.3V-141.415Z" fill="white"/>
<path d="M-270.948 489.252L-235.087 520.898L-225.088 619.388L-216.775 627.99L-184.19 604.417L-158.029 585.433L-120.231 566.682L-102.779 571.292C-102.467 571.375 -102.189 571.543 -101.972 571.784C-99.6063 574.414 -85.3378 590.519 -84.1399 597.78C-82.2149 609.449 -93.7639 643.285 -93.7639 643.285H-60.3096C-60.3096 643.285 -56.0687 608.497 -60.3096 588.562C-64.5506 568.627 -73.0493 532.362 -83.3459 517.674C-93.6424 502.987 -98.1047 493.094 -116.762 494.378C-135.42 495.661 -152.238 505.947 -164.496 499.744C-176.753 493.542 -191.365 484.517 -189.971 472.505C-188.578 460.493 -180.862 446.863 -174.036 436.599C-167.211 426.334 -158.419 408.725 -155.194 398.779C-151.968 388.833 -156.159 379.73 -151.974 378.208C-147.788 376.686 -142.169 379.556 -142.169 379.556C-142.169 379.556 -120.785 391.418 -114.535 401.333C-108.286 411.249 -100.468 421.054 -87.6905 426.666C-63.9319 432.799 -30.4969 414.692 -8.4856 413.369C5.22305 412.545 21.1672 400.398 23.7479 391.319C26.3286 382.239 32.3851 363.76 27.1214 353.074C21.8578 342.389 6.8396 320.552 -3.49756 319.904C-13.8347 319.255 -82.7549 302.782 -91.2427 305.938C-99.7306 309.094 -122.03 308.399 -130.922 317.485C-139.814 326.571 -148.146 340.814 -150.939 348.39C-153.733 355.966 -146.942 358.106 -155.194 359.937C-163.445 361.767 -180.826 357.663 -180.826 357.663C-180.826 357.663 -208.771 356.966 -218.705 355.306C-228.639 353.646 -242.65 346.999 -248.708 337.584C-254.765 328.169 -264.668 235.231 -264.668 235.231C-264.668 235.231 -247.459 220.346 -237.215 204.541C-232.84 197.791 -230.663 186.006 -229.866 180.58C-228.041 168.158 -229.674 145.409 -223.08 132.584C-213.752 114.444 -192.044 112.569 -184.89 110.895C-165.867 106.444 -130.161 105.089 -122.274 96.0352C-114.388 86.9814 -110.801 68.9153 -102.683 65.8634C-94.5655 62.8115 -74.2889 48.9038 -67.5369 43.0831C-60.7848 37.2625 -40.273 8.08337 -33.2684 -1.06261C-26.2638 -10.2086 -9.5994 -29.4749 -9.5994 -29.4749L-143.657 -43.1917L-167.783 -2.55402L-164.109 49.6028L-210.901 77.3169L-311.225 103.641L-345.264 242.288L-311.225 343.257L-290.833 367.9L-270.725 407.732C-270.725 407.732 -279.379 444.334 -278.283 463.825" fill="#B1D289"/>
<path d="M475.466 694.405C282.96 649.603 313.816 433.352 415.934 445.658C455.594 450.438 479.944 456.032 522.717 437.516C590.06 408.364 588.302 356.484 648.696 357.487C827.006 360.45 744.972 757.129 475.466 694.405Z" fill="#B1D289"/>
<path d="M-112.188 147.122C-304.694 102.319 -273.838 -113.932 -171.72 -101.625C-132.06 -96.8454 -107.71 -91.2514 -64.9371 -109.767C2.4059 -138.919 0.648499 -190.799 61.0425 -189.796C239.352 -186.834 157.318 209.845 -112.188 147.122Z" fill="#B1D289"/>
<path d="M-58.6131 633.226C-55.1094 611.826 -57.1073 590.092 -64.5507 568.627C-66.5204 562.941 -68.2894 557.074 -69.9992 551.401C-72.0348 544.645 -74.1402 537.66 -76.615 530.888C-80.0993 521.348 -84.0486 510.535 -93.6425 502.986C-101.869 496.511 -110.954 493.49 -120.64 494.003C-125.622 494.268 -130.604 494.975 -135.42 495.661C-139.251 496.206 -143.213 496.769 -147.124 497.099C-153.723 497.659 -159.365 497.635 -164.372 497.027C-171.678 496.138 -176.58 490.514 -181.367 484.33C-187.564 476.321 -189.154 468.728 -186.096 461.757C-183.949 456.866 -180.991 452.233 -178.131 447.752L-177.594 446.911C-175.733 443.993 -173.726 441.087 -171.785 438.276C-168.708 433.819 -165.524 429.208 -162.805 424.385C-156.522 413.237 -153.884 400.709 -151.968 388.833C-151.621 386.681 -150.994 384.615 -150.33 382.426C-149.994 381.321 -149.657 380.215 -149.36 379.102C-149.109 378.154 -148.631 376.964 -147.788 376.686C-146.975 376.418 -145.851 377.024 -145.051 377.58C-144.096 378.242 -143.133 378.899 -142.169 379.556C-138.479 382.072 -134.664 384.674 -131.37 387.673C-128.16 390.594 -125.125 393.876 -122.19 397.05C-120.307 399.087 -118.361 401.191 -116.37 403.199C-110.89 408.732 -105.002 414.512 -97.84 421.391C-92.6615 426.364 -86.6535 429.319 -79.9801 430.18C-72.2484 431.176 -64.3424 430.133 -55.8141 426.993C-54.7236 426.59 -53.633 426.185 -52.5425 425.78C-47.1437 423.772 -41.5609 421.695 -35.9335 420.162C-29.8573 418.507 -23.6109 417.014 -17.5683 415.565C-11.7242 414.169 -5.68042 412.722 0.214539 411.13C14.9047 407.166 24.5626 397.771 28.9206 383.208C32.176 372.324 30.9576 360.766 25.2988 348.855C16.6599 330.671 3.59476 319.807 -13.5314 316.565C-22.0173 314.96 -30.6737 313.712 -39.0437 312.508C-46.2061 311.476 -53.6113 310.409 -60.8561 309.127C-73.2934 306.92 -86.6643 305.061 -100.183 306.368C-113.325 307.639 -123.093 311.171 -130.922 317.485C-138.525 323.617 -144.508 331.905 -148.705 342.121C-149.549 344.18 -150.256 346.32 -150.94 348.39C-151.669 350.603 -152.424 352.892 -153.335 355.03L-153.733 355.966C-155.886 361.067 -156.063 361.488 -162.748 359.182C-175.501 354.784 -189.48 353.172 -206.745 354.104C-227.593 355.23 -241.256 347.113 -252.433 326.965C-258.156 316.647 -259.38 305.596 -260.298 293.259C-261.434 277.972 -262.424 265.23 -263.967 252.026C-265.569 238.317 -262.809 229.735 -254.732 223.339C-252.072 221.229 -249.668 218.775 -247.347 216.4C-245.741 214.758 -244.079 213.057 -242.364 211.511C-234.758 204.66 -230.315 195.497 -229.157 184.297C-228.605 178.938 -228.318 173.458 -228.041 168.158C-227.778 163.114 -227.505 157.894 -227.004 152.822C-225.844 141.109 -222.052 132.439 -215.457 126.316C-209.677 120.967 -202.682 117.245 -195.225 115.552C-185.237 113.286 -175.02 111.174 -165.141 109.128C-157.201 107.485 -148.992 105.788 -140.943 104.018C-125.128 100.542 -115.846 93.2248 -111.733 80.9918C-109.861 75.4193 -107.142 71.368 -103.423 68.5964C-98.4177 64.8702 -93.4831 61.2819 -88.1137 58.3036C-77.7697 52.5636 -66.0531 45.0859 -57.5931 33.1352C-55.1323 29.6609 -52.6986 26.1668 -50.2637 22.6727C-45.4797 15.8061 -40.5332 8.70396 -35.4717 1.8898C-30.0731 -5.37758 -22.8618 -14.8799 -14.9374 -23.9343C-13.2397 -25.8735 -11.4511 -27.7098 -9.59949 -29.4749H-13.618C-14.7791 -28.2956 -15.9185 -27.089 -17.0177 -25.833C-24.9996 -16.7151 -32.2498 -7.16239 -37.6745 0.142183C-42.7587 6.98931 -47.715 14.1044 -52.511 20.9865C-54.9414 24.475 -57.3729 27.9648 -59.8284 31.4316C-68.0108 42.988 -79.4402 50.2729 -89.5448 55.8792C-95.0441 58.93 -100.053 62.5718 -105.125 66.3496C-109.262 69.4275 -112.259 73.8711 -114.298 79.9416C-118.108 91.2671 -126.814 98.0669 -141.699 101.341C-149.734 103.106 -157.935 104.803 -165.867 106.444C-175.759 108.491 -185.987 110.608 -196 112.879C-203.879 114.667 -211.266 118.595 -217.358 124.235C-224.436 130.772 -228.47 139.982 -229.692 152.35C-230.202 157.487 -230.475 162.736 -230.739 167.812C-231.014 173.078 -231.299 178.524 -231.846 183.814C-232.937 194.362 -237.11 202.975 -244.243 209.407C-246.013 211.004 -247.703 212.733 -249.337 214.402C-251.608 216.722 -253.955 219.122 -256.493 221.133C-267.675 229.987 -267.794 242.363 -266.651 252.148C-265.115 265.297 -264.126 278.008 -262.993 293.263C-262.052 305.947 -260.78 317.326 -254.766 328.168C-243.114 349.172 -228.199 358.015 -206.402 356.84C-189.496 355.925 -175.848 357.49 -163.445 361.767C-154.878 364.721 -153.692 363.019 -151.236 357.194L-150.841 356.266C-149.888 354.032 -149.115 351.69 -148.367 349.427C-147.699 347.399 -147.009 345.302 -146.198 343.328C-142.162 333.502 -136.428 325.543 -129.146 319.675C-121.707 313.677 -112.36 310.315 -99.7307 309.094C-86.5278 307.816 -73.376 309.649 -61.1292 311.822C-53.838 313.116 -46.4109 314.183 -39.228 315.217C-30.8882 316.418 -22.2635 317.66 -13.8349 319.255C2.32101 322.315 14.6738 332.621 22.8801 349.892C28.2256 361.14 29.3846 372.024 26.3285 382.239C22.2341 395.925 13.153 404.754 -0.656891 408.483C-6.51968 410.065 -12.5436 411.505 -18.3707 412.899C-24.4315 414.351 -30.6996 415.85 -36.8127 417.514C-42.5495 419.078 -48.1857 421.172 -53.6373 423.2C-54.7247 423.606 -55.8119 424.012 -56.8993 424.41C-65.0329 427.405 -72.5357 428.404 -79.8369 427.464C-85.8882 426.683 -91.3465 423.994 -96.0588 419.471C-103.203 412.609 -109.073 406.848 -114.536 401.333C-116.488 399.361 -118.418 397.276 -120.282 395.261C-123.261 392.038 -126.34 388.707 -129.648 385.698C-133.099 382.555 -137.004 379.894 -140.777 377.32C-141.734 376.669 -142.69 376.016 -143.637 375.358C-145.569 374.016 -147.305 373.586 -148.795 374.077C-150.309 374.576 -151.378 375.97 -151.974 378.208C-152.263 379.294 -152.592 380.372 -152.918 381.447C-153.577 383.622 -154.26 385.87 -154.635 388.2C-156.513 399.839 -159.09 412.097 -165.178 422.896C-167.842 427.622 -170.993 432.186 -174.037 436.599C-175.991 439.426 -178.012 442.352 -179.896 445.308L-180.433 446.15C-183.342 450.71 -186.354 455.425 -188.578 460.493C-192.072 468.449 -190.344 477.004 -183.445 485.917C-178.465 492.354 -172.897 498.724 -164.496 499.744C-159.304 500.376 -153.484 500.402 -146.702 499.829C-142.718 499.491 -138.719 498.922 -134.851 498.373C-130.091 497.695 -125.166 496.997 -120.3 496.737C-111.303 496.259 -102.859 499.074 -95.1991 505.101C-86.2807 512.118 -82.6512 522.056 -79.1409 531.666C-76.6965 538.359 -74.6031 545.303 -72.5792 552.021C-70.8608 557.722 -69.084 563.617 -67.0928 569.36C-59.8078 590.37 -57.8522 611.643 -61.2811 632.586C-61.821 635.895 -62.3867 639.198 -62.9526 642.503C-62.997 642.762 -63.0416 643.025 -63.086 643.285H-60.3097C-60.3022 643.243 -60.2957 643.202 -60.2891 643.162C-59.7221 639.851 -59.1563 636.542 -58.6131 633.226Z" fill="#1D71B8"/>
<path d="M-57.2252 577.847C-60.9697 561.978 -65.3277 543.537 -69.6725 525.521C-69.8124 524.94 -69.9522 524.356 -70.0899 523.774C-71.0168 519.875 -71.975 515.843 -73.4872 512.071C-78.9759 498.375 -86.2511 489.941 -96.3795 485.525C-100.697 483.643 -105.795 481.657 -110.852 481.215C-116.414 480.727 -122.066 480.564 -127.537 480.406C-132.947 480.249 -138.542 480.086 -144.04 479.609C-148.921 479.188 -153.871 477.613 -157.625 475.289C-164.476 471.048 -166.385 464.492 -163.294 455.801C-158.355 441.914 -150.993 429.665 -141.411 419.396C-135.365 412.915 -130.213 412.629 -122.387 418.304C-117.538 421.82 -112.907 425.849 -108.429 429.746C-107.135 430.872 -105.843 431.995 -104.543 433.111C-98.5865 438.219 -91.1965 443.488 -81.5473 443.818C-72.1074 444.143 -63.4423 441.054 -56.0621 438.133C-53.0613 436.946 -50.0499 435.643 -47.1392 434.382C-42.7282 432.473 -38.1664 430.498 -33.5483 428.891C-28.0456 426.978 -22.3651 425.233 -16.8731 423.546C-10.4717 421.58 -3.85254 419.546 2.52931 417.232C17.5665 411.778 27.5494 401.49 32.2089 386.657C36.7662 372.153 34.4506 357.086 25.131 340.594C16.0499 324.523 2.85347 314.511 -14.0904 310.837C-20.0559 309.544 -26.1594 308.54 -32.063 307.572C-35.1917 307.057 -38.4276 306.526 -41.6028 305.958L-45.1737 305.317C-66.4799 301.496 -88.5101 297.542 -110.368 297.19C-121.234 297.016 -133.854 297.69 -145.073 304.009C-149.706 306.618 -154.214 309.599 -158.573 312.482C-160.671 313.867 -162.837 315.298 -164.99 316.672C-179.115 325.682 -193.286 330.664 -208.308 331.906C-217.871 332.695 -226.636 329.257 -233.655 321.961C-239.228 316.169 -243.086 308.824 -244.519 301.275C-246.886 288.805 -248.842 275.895 -250.334 262.902C-251.638 251.514 -250.041 242.499 -245.451 235.342C-241.931 229.851 -237.626 224.766 -233.464 219.849L-232.447 218.649C-225.03 209.87 -220.615 199.327 -219.327 187.312C-218.939 183.692 -218.694 179.984 -218.456 176.398C-218.133 171.541 -217.8 166.516 -217.107 161.657C-214.923 146.289 -207.379 135.858 -194.048 129.766C-176.815 121.892 -158.333 120.258 -144.154 119.714C-131.874 119.242 -119.332 119.243 -107.203 119.246C-99.2522 119.247 -91.0307 119.248 -82.9555 119.116C-76.978 119.018 -70.6547 118.787 -64.8062 117.156C-57.7272 115.179 -53.0451 111.645 -51.263 106.932C-49.6553 102.677 -50.4413 97.5951 -53.5959 91.8255C-53.9005 91.2716 -54.1736 90.6856 -54.4402 90.1185C-54.797 89.3596 -55.1644 88.5745 -55.6111 87.8421C-60.7746 79.3483 -60.9067 70.3079 -56.0079 60.9732L-55.261 59.5487C-46.8237 43.4686 -38.1014 26.8436 -28.8065 10.9586C-20.4158 -3.38349 -10.6875 -18.1473 3.48666 -29.4749H2.7278C-11.249 -18.1582 -20.8778 -3.51715 -29.1979 10.7046C-38.4992 26.5994 -47.2238 43.2278 -55.6609 59.3121L-56.4102 60.7366C-61.3849 70.2203 -61.245 79.414 -55.9895 88.0598C-55.557 88.7694 -55.196 89.5426 -54.8447 90.2894C-54.5759 90.863 -54.2995 91.4566 -53.9862 92.0248C-50.9031 97.6639 -50.1269 102.617 -51.6857 106.743C-53.4181 111.327 -58.0069 114.775 -64.9558 116.716C-70.7544 118.334 -77.0483 118.563 -82.9966 118.66C-91.0675 118.792 -99.287 118.792 -107.235 118.789C-119.37 118.787 -131.916 118.786 -144.205 119.259C-158.421 119.804 -176.959 121.443 -194.258 129.348C-207.727 135.5 -215.346 146.038 -217.553 161.561C-218.249 166.435 -218.582 171.466 -218.905 176.333C-219.143 179.916 -219.389 183.618 -219.775 187.23C-221.053 199.157 -225.435 209.623 -232.799 218.337L-233.814 219.537C-237.985 224.466 -242.299 229.561 -245.834 235.074C-250.48 242.317 -252.099 251.425 -250.78 262.923C-249.289 275.926 -247.331 288.847 -244.961 301.328C-243.51 308.969 -239.607 316.406 -233.968 322.266C-226.841 329.672 -217.946 333.161 -208.239 332.359C-193.145 331.114 -178.914 326.11 -164.731 317.064C-162.574 315.689 -160.407 314.256 -158.309 312.87C-153.954 309.989 -149.451 307.013 -144.833 304.413C-133.7 298.14 -121.151 297.473 -110.342 297.647C-88.5221 297.997 -66.5081 301.947 -45.2215 305.767L-41.6483 306.408C-38.4711 306.977 -35.233 307.507 -32.1021 308.023C-26.206 308.99 -20.107 309.992 -14.1532 311.282C2.64856 314.927 15.7364 324.857 24.7451 340.798C33.9943 357.167 36.2946 372.111 31.7784 386.491C27.1593 401.193 17.2596 411.394 2.35037 416.801C-4.02283 419.112 -10.6356 421.143 -17.0314 423.11C-22.5288 424.798 -28.2126 426.541 -33.7217 428.46C-38.3549 430.07 -42.9231 432.048 -47.3419 433.962C-50.2503 435.218 -53.2564 436.521 -56.2528 437.706C-63.593 440.613 -72.2093 443.684 -81.5646 443.361C-91.0698 443.036 -98.3752 437.825 -104.267 432.772C-105.565 431.658 -106.858 430.535 -108.15 429.409C-112.637 425.504 -117.276 421.467 -122.142 417.94C-130.105 412.166 -135.59 412.483 -141.748 419.07C-151.368 429.38 -158.762 441.677 -163.72 455.62C-166.894 464.547 -164.915 471.296 -157.838 475.674C-154.022 478.037 -148.996 479.638 -144.046 480.065C-138.534 480.542 -132.932 480.705 -127.515 480.861C-122.053 481.02 -116.405 481.183 -110.858 481.669C-105.865 482.107 -100.814 484.075 -96.5302 485.942C-86.5297 490.302 -79.3391 498.65 -73.9046 512.213C-72.4044 515.953 -71.4504 519.967 -70.5277 523.847C-70.389 524.432 -70.2502 525.015 -70.1095 525.598C-65.7644 543.614 -61.4064 562.052 -57.6621 577.922C-53.3075 596.374 -52.0911 614.656 -54.049 632.257C-54.4533 635.909 -54.8023 639.6 -55.1212 643.285H-54.6658C-54.3481 639.628 -54.0024 635.965 -53.6001 632.342C-51.6368 614.687 -52.8577 596.352 -57.2252 577.847Z" fill="#B2B2B2"/>
<path d="M6.14769 312.168C5.93079 312.03 5.6555 312.085 5.53405 312.297C5.41261 312.507 5.49187 312.789 5.70856 312.927C8.81345 314.918 11.7632 317.22 14.4722 319.772C14.6542 319.942 14.9242 319.947 15.0889 319.787C15.0945 319.782 15.102 319.774 15.1074 319.77C15.269 319.59 15.2472 319.301 15.0587 319.125C12.304 316.531 9.30655 314.191 6.14769 312.168Z" fill="url(#paint0_linear_1372_1964)"/>
<path d="M22.5898 327.604C22.4368 327.394 22.1528 327.344 21.9588 327.485C21.7603 327.629 21.731 327.912 21.8862 328.118C24.2114 331.236 26.3187 334.361 28.1519 337.409C28.2854 337.632 28.564 337.715 28.772 337.595C28.8047 337.577 28.8329 337.558 28.8566 337.534C28.9976 337.397 29.0247 337.168 28.9108 336.979C27.0625 333.902 24.9356 330.747 22.5898 327.604Z" fill="url(#paint1_linear_1372_1964)"/>
<path d="M36.9037 389.486C36.6652 389.394 36.4137 389.51 36.3411 389.745C35.3058 393.083 33.9333 396.225 32.1425 399.354C32.02 399.566 32.1001 399.846 32.3159 399.985C32.498 400.104 32.7213 400.08 32.8601 399.945C32.8852 399.92 32.91 399.889 32.9285 399.855C34.7519 396.673 36.1493 393.475 37.203 390.077C37.2756 389.841 37.1412 389.576 36.9037 389.486Z" fill="url(#paint2_linear_1372_1964)"/>
<path d="M39.1556 368.081C38.9074 368.081 38.7209 368.284 38.7405 368.536C38.9984 372.111 38.9181 375.739 38.5051 379.319C38.4758 379.567 38.6525 379.807 38.8988 379.853C39.0462 379.881 39.1827 379.837 39.276 379.747C39.3421 379.681 39.3876 379.595 39.3994 379.491C39.8201 375.854 39.9014 372.168 39.6381 368.536C39.6196 368.286 39.405 368.081 39.1556 368.081Z" fill="url(#paint3_linear_1372_1964)"/>
<path d="M26.1512 407.876C25.7902 408.306 25.427 408.736 25.054 409.159C23.1873 411.3 21.095 413.331 18.8185 415.211C18.6353 415.364 18.6169 415.65 18.7827 415.85C18.9475 416.052 19.2328 416.087 19.4179 415.936C20.5824 414.974 21.7076 413.967 22.7624 412.94C23.8021 411.931 24.8069 410.871 25.7501 409.793C26.1241 409.363 26.4947 408.93 26.8557 408.495C27.012 408.309 26.9794 408.019 26.7831 407.849C26.5879 407.68 26.3104 407.697 26.1512 407.876Z" fill="url(#paint4_linear_1372_1964)"/>
<path d="M34.1187 346.988C34.0148 346.752 33.7491 346.633 33.5226 346.719C33.2937 346.806 33.1962 347.07 33.2993 347.306C34.8234 350.788 36.0516 354.302 36.9472 357.751C37.0123 357.997 37.2583 358.161 37.4978 358.114C37.5813 358.097 37.6517 358.059 37.707 358.006C37.8122 357.903 37.861 357.744 37.8175 357.581C36.9093 354.081 35.6635 350.517 34.1187 346.988Z" fill="url(#paint5_linear_1372_1964)"/>
<path d="M10.275 421.111C7.46606 422.742 4.41335 424.272 0.940137 425.788C0.720121 425.885 0.627975 426.15 0.74054 426.383C0.853326 426.617 1.12441 426.727 1.34664 426.631C4.84917 425.103 7.93009 423.558 10.7661 421.91C10.7963 421.894 10.8225 421.873 10.844 421.851C10.9873 421.713 11.0143 421.482 10.8973 421.291C10.7617 421.071 10.483 420.989 10.275 421.111Z" fill="url(#paint6_linear_1372_1964)"/>
<path d="M-39.3787 577.592C-42.0551 563.497 -42.8997 551.779 -42.0389 540.712C-41.15 529.269 -40.9353 517.533 -40.7261 506.185L-40.7228 505.937C-40.6686 503.002 -40.9071 499.992 -41.1371 497.085C-41.3105 494.889 -41.4892 492.619 -41.5425 490.401C-41.7678 480.892 -38.5146 472.991 -31.5951 466.251C-31.5789 466.235 -31.5647 466.221 -31.5496 466.207C-23.8776 458.749 -14.5005 453.494 -5.43113 448.411C-4.59325 447.943 -3.75735 447.475 -2.92057 447.003C-1.62511 446.273 -0.327431 445.55 0.970253 444.827C13.2948 437.961 26.0412 430.863 35.0098 418.871C43.1575 407.978 47.6847 398.028 49.2619 387.553C53.055 362.322 45.0979 338.198 24.9311 313.801C16.9112 304.094 6.15855 297.057 -9.93229 290.983C-15.282 288.961 -20.7707 287.08 -26.0804 285.26C-37.1508 281.465 -48.6028 277.54 -59.4155 272.148C-70.6224 266.56 -79.7752 259.365 -87.395 250.15C-95.1623 240.759 -102.792 230.99 -110.173 221.542L-111.566 219.758C-117.713 211.891 -121.308 205.67 -111.67 197.208C-109.315 195.144 -106.785 193.345 -104.153 191.864C-90.8749 184.386 -76.0882 179.663 -61.7917 175.095C-59.889 174.487 -57.9888 173.881 -56.0894 173.267C-41.7527 168.631 -25.4679 162.116 -13.3851 148.903C-7.73589 142.724 -1.70638 136.063 4.10311 129.237C7.20245 125.595 10.2236 121.78 13.1421 118.09C14.8884 115.883 16.6923 113.603 18.4962 111.384C19.7581 109.828 21.1022 108.287 22.401 106.798C24.902 103.927 27.493 100.957 29.6361 97.7375C33.4616 91.991 38.6664 87.4304 46.0217 83.3887C51.3748 80.442 57.2167 77.6357 63.3861 75.0437C68.7458 72.7913 73.0755 69.6072 76.2583 65.5821C80.0861 60.7411 81.2861 56.6184 75.4724 51.0352C72.231 47.9264 68.5084 47.4337 65.6258 47.3516C61.3546 47.2301 57.0249 47.3559 52.8403 47.4774C50.2343 47.553 47.5394 47.6319 44.8877 47.6494C41.01 47.6745 36.9091 47.4754 33.1528 44.8166C28.72 41.6751 26.4088 37.1584 26.0869 31.0056C25.5579 20.8693 27.7085 10.6795 33.0607 -2.03884C37.3751 -12.2891 43.9424 -21.0807 50.6115 -29.4749H50.0121C43.4091 -21.1486 36.9275 -12.4194 32.6444 -2.24246C29.0235 6.36079 24.954 17.915 25.6358 30.9968C25.9675 37.3084 28.347 41.95 32.9141 45.1835C36.7877 47.9264 40.97 48.1311 44.9245 48.106C47.5816 48.0874 50.2787 48.0096 52.8849 47.9342C57.065 47.8116 61.3882 47.6855 65.6464 47.8093C68.4445 47.888 72.0564 48.3634 75.1742 51.3559C80.7528 56.7104 79.6656 60.5155 75.8995 65.2809C72.76 69.2535 68.4844 72.394 63.1867 74.6201C57.0064 77.2174 51.1514 80.0305 45.7842 82.9834C38.3724 87.0579 33.119 91.658 29.2566 97.4637C27.1286 100.662 24.5475 103.621 22.0531 106.483C20.751 107.974 19.4069 109.516 18.1374 111.079C16.3346 113.3 14.5285 115.581 12.7822 117.789C9.86377 121.476 6.84679 125.287 3.75189 128.925C-2.05338 135.746 -8.08067 142.403 -13.7254 148.58C-25.7378 161.721 -41.9674 168.212 -56.2542 172.831C-58.1535 173.445 -60.056 174.051 -61.9542 174.659C-76.2736 179.233 -91.0798 183.962 -104.394 191.461C-107.05 192.956 -109.603 194.771 -111.978 196.852C-121.882 205.561 -118.014 212.215 -111.911 220.024L-110.517 221.808C-103.137 231.259 -95.5017 241.03 -87.73 250.427C-80.0645 259.697 -70.8599 266.936 -59.5888 272.554C-48.746 277.961 -37.2809 281.892 -26.1954 285.692C-20.8899 287.511 -15.4045 289.391 -10.0624 291.408C5.94497 297.45 16.6337 304.443 24.5952 314.077C44.6666 338.362 52.5879 362.363 48.8143 387.452C47.25 397.855 42.7468 407.743 34.6443 418.577C25.7279 430.496 13.0195 437.577 0.731606 444.423C-0.566971 445.146 -1.86578 445.871 -3.16123 446.6C-3.99801 447.071 -4.83502 447.541 -5.6698 448.007C-14.7618 453.104 -24.1617 458.372 -31.8726 465.868C-31.8877 465.882 -31.903 465.896 -31.9181 465.911C-38.9267 472.737 -42.2221 480.741 -41.9923 490.377C-41.9403 492.609 -41.7592 494.886 -41.5869 497.087C-41.3571 499.984 -41.1207 502.982 -41.1739 505.897L-41.1782 506.142C-41.3864 517.485 -41.6009 529.214 -42.4887 540.643C-43.3506 551.751 -42.5029 563.509 -39.821 577.644C-36.651 594.343 -34.9772 611.234 -33.6396 626.998C-33.182 632.401 -32.5588 637.84 -31.7935 643.285H-31.3424C-32.1088 637.837 -32.7333 632.397 -33.1918 626.992C-34.5297 611.216 -36.2057 594.313 -39.3787 577.592Z" fill="#B2B2B2"/>
<path d="M-42.6165 595.81C-43.3438 591.532 -44.1481 587.191 -44.9243 582.991C-48.015 566.295 -51.2098 549.032 -50.4228 531.843C-49.8644 519.641 -51.2791 506.414 -54.8748 490.215C-55.8257 485.939 -56.1217 481.499 -55.7303 477.369C-54.8078 467.615 -48.0747 462.294 -40.0297 456.817C-27.9436 448.59 -14.6377 442.471 -0.930923 436.412C14.4954 429.598 25.9495 420.646 34.0821 409.047C42.037 397.703 45.6436 385.059 44.8068 371.466C43.9505 357.594 39.1057 343.713 30.4126 330.209C19.7996 313.726 5.50308 302.79 -12.0806 297.708C-14.4839 297.015 -16.8895 296.316 -19.2917 295.619C-34.3319 291.251 -49.8828 286.736 -65.3156 283.15C-83.3913 278.953 -99.2532 269.744 -115.237 254.175C-121.62 247.958 -129.749 244.173 -138.75 243.231C-151.211 241.925 -162.367 245.271 -172.564 249.084C-178.8 251.414 -184.481 253.284 -190.887 252.56C-195.683 252.018 -199.104 248.398 -199.021 243.951C-198.93 239.082 -198.827 233.56 -197.36 228.664C-192.843 213.586 -190.219 197.667 -189.339 179.996C-188.622 165.589 -181.902 156.365 -169.365 152.585C-161.219 150.13 -152.29 149.847 -142.055 151.719C-136.868 152.669 -131.627 153.964 -126.557 155.219C-122.718 156.169 -118.747 157.15 -114.824 157.975C-99.9883 161.096 -85.1745 160.672 -71.3744 159.75C-57.4149 158.818 -45.9607 155.914 -36.3569 150.869C-25.7548 145.301 -17.9647 136.798 -11.1277 128.438C-3.27031 118.83 2.37868 109.404 6.14273 99.6241C8.33247 93.9355 10.119 87.1346 6.76814 79.8255C4.91119 75.7719 2.96301 71.6734 1.08009 67.7106C0.214905 65.8897 -0.651184 64.0688 -1.51083 62.2445C-5.41454 53.9641 -6.56371 46.5653 -5.02425 39.6265C-3.7148 33.7091 -2.18845 27.4282 0.0761261 21.5811C7.69171 1.91719 17.7986 -13.5122 30.9883 -25.6238C32.4117 -26.9291 33.8752 -28.2102 35.3343 -29.4749H34.6165C33.2908 -28.323 31.965 -27.1579 30.6728 -25.9721C17.432 -13.8133 7.29387 1.66333 -0.345474 21.3862C-2.62093 27.2607 -4.1506 33.5602 -5.46559 39.4951C-7.0266 46.538 -5.86658 54.0343 -1.91425 62.4165C-1.05438 64.2405 -0.188278 66.0617 0.676697 67.8826C2.55763 71.8443 4.50558 75.9383 6.36275 79.9921C9.63881 87.1422 7.87823 93.8305 5.7209 99.4301C1.97438 109.171 -3.65308 118.559 -11.4831 128.129C-18.2944 136.458 -26.0507 144.928 -36.5867 150.46C-46.1385 155.477 -57.5386 158.367 -71.435 159.293C-85.2049 160.215 -99.9827 160.638 -114.762 157.529C-118.678 156.705 -122.644 155.725 -126.481 154.775C-131.557 153.52 -136.806 152.221 -142.008 151.271C-152.311 149.385 -161.31 149.67 -169.522 152.147C-182.245 155.984 -189.064 165.333 -189.791 179.939C-190.667 197.575 -193.286 213.458 -197.79 228.502C-199.275 233.456 -199.379 239.011 -199.471 243.91C-199.558 248.612 -195.955 252.443 -190.903 253.014C-184.401 253.75 -178.669 251.863 -172.383 249.513C-162.233 245.719 -151.135 242.388 -138.764 243.685C-129.869 244.614 -121.839 248.352 -115.537 254.492C-99.4863 270.129 -83.5507 279.376 -65.3838 283.596C-49.9641 287.178 -34.4199 291.691 -19.386 296.056C-16.9816 296.754 -14.5791 297.453 -12.1758 298.147C5.29262 303.196 19.4961 314.06 30.0408 330.438C38.6894 343.87 43.506 357.673 44.3559 371.46C45.1896 384.95 41.6067 397.501 33.7094 408.765C25.6166 420.3 14.221 429.207 -1.13474 435.992C-14.8611 442.06 -28.1854 448.187 -40.3008 456.432C-48.4313 461.967 -55.2392 467.356 -56.1781 477.292C-56.5748 481.469 -56.2767 485.962 -55.3151 490.283C-51.728 506.439 -50.3153 519.628 -50.8726 531.789C-51.6618 549.03 -48.4628 566.321 -45.3666 583.044C-44.5915 587.241 -43.7883 591.581 -43.0598 595.853C-41.7915 603.309 -41.1552 609.975 -41.1192 616.238C-41.0672 624.908 -40.7367 633.83 -40.1155 643.285H-39.6656C-40.2866 633.84 -40.6163 624.929 -40.6672 616.268C-40.7063 609.982 -41.3414 603.289 -42.6165 595.81Z" fill="#B2B2B2"/>
<path d="M-31.1332 577.3L-31.3284 575.721C-32.3896 567.099 -33.4899 558.186 -32.7615 549.787C-32.2324 543.69 -31.5224 537.511 -30.8351 531.536C-29.5678 520.52 -28.2584 509.127 -28.0177 497.69C-27.9027 492.146 -26.0848 486.611 -24.322 481.926C-20.2915 471.207 -11.0206 465.103 -2.05424 459.199L-0.786079 458.364C1.86879 456.61 4.59846 454.859 7.23933 453.167C13.811 448.95 20.6047 444.59 26.9117 439.773C33.7219 434.565 39.7179 427.573 45.7811 417.761C59.1378 396.131 61.2745 372.416 52.1281 347.274C47.4027 334.282 41.6834 323.544 34.6435 314.45C27.3629 305.045 19.7797 297.776 11.4639 292.23C2.87051 286.497 -6.55096 282.549 -15.6647 278.731C-16.9007 278.212 -18.1386 277.694 -19.3733 277.171C-30.201 272.588 -41.4503 267.108 -50.357 258.107C-60.7997 247.557 -66.4358 234.685 -67.1123 219.848C-67.6207 208.7 -63.2834 199.722 -54.2194 193.155C-47.2532 188.111 -39.8198 183.427 -32.6336 178.895C-27.236 175.492 -21.6554 171.975 -16.2935 168.32C-10.5122 164.378 -5.17535 159.849 -0.423973 154.858C4.04676 150.158 8.25508 145.077 12.3257 140.164C14.4278 137.627 16.6024 135.003 18.7802 132.468C21.7983 128.963 25.0266 125.25 28.4283 121.809C29.8508 120.373 31.2599 118.868 32.6227 117.412C36.4571 113.32 40.4203 109.09 44.9854 106.013C50.8198 102.078 57.3979 98.9211 63.7591 95.8683C66.013 94.7863 68.3437 93.6695 70.6136 92.5296C85.0826 85.2643 96.0176 76.3666 104.045 65.3192C108.263 59.5115 109.785 53.4604 108.442 47.818C107.133 42.3287 103.144 37.4353 96.9043 33.6665C92.6776 31.1118 88.1808 28.959 83.8338 26.8763C80.4982 25.2788 77.0476 23.6265 73.7716 21.8165C64.4615 16.6699 58.1046 11.2881 57.3328 1.74316C57.0433 -1.85925 57.3555 -5.8144 58.3192 -10.7057C59.6407 -17.4049 62.3162 -23.4076 65.6529 -29.4749H62.4756C59.4011 -23.7043 56.9459 -17.9119 55.6677 -11.4306C54.654 -6.28959 54.3279 -2.09583 54.6389 1.76514C55.57 13.2592 63.8297 19.3396 72.6149 24.1959C75.9657 26.0475 79.4563 27.7195 82.83 29.3369C87.1141 31.3877 91.5448 33.5109 95.6512 35.9911C101.183 39.3329 104.698 43.5783 105.816 48.2712C106.971 53.1144 105.591 58.4142 101.826 63.5947C94.0328 74.3156 83.386 82.9726 69.2726 90.0561C67.022 91.1873 64.7022 92.3007 62.4583 93.3793C56.0167 96.4682 49.3574 99.6645 43.3756 103.701C38.5829 106.931 34.5262 111.263 30.5988 115.452C29.2469 116.895 27.8484 118.389 26.45 119.802C22.9952 123.298 19.7311 127.046 16.687 130.584C14.4928 133.136 12.3118 135.768 10.2022 138.317C6.15858 143.198 1.97623 148.245 -2.437 152.884C-7.06382 157.751 -12.2728 162.169 -17.9142 166.014C-23.239 169.645 -28.8003 173.149 -34.1795 176.541C-41.3993 181.091 -48.8652 185.799 -55.8942 190.888C-65.6769 197.97 -70.3621 207.69 -69.8115 219.769C-69.1015 235.353 -63.1737 248.878 -52.1943 259.971C-42.9181 269.344 -31.3597 274.986 -20.2536 279.687C-19.0167 280.21 -17.7754 280.73 -16.5341 281.251C-7.55047 285.014 1.73979 288.908 10.098 294.481C18.1375 299.845 25.4873 306.896 32.563 316.036C39.4099 324.881 44.9821 335.351 49.5991 348.049C58.4396 372.351 56.3744 395.276 43.4579 416.188C37.5605 425.738 31.7544 432.522 25.1838 437.544C18.9591 442.301 12.2076 446.633 5.67504 450.822C3.02773 452.52 0.292709 454.275 -2.37726 456.038L-3.64142 456.872C-12.9339 462.99 -22.5421 469.316 -26.8576 480.789C-28.6984 485.68 -30.5955 491.484 -30.7203 497.428C-30.9576 508.741 -32.2595 520.068 -33.5203 531.022C-34.2088 537.016 -34.9219 543.214 -35.4543 549.347C-36.2067 558.034 -35.0889 567.097 -34.0081 575.861L-33.8163 577.436C-31.9289 592.831 -29.5798 610.983 -26.4576 628.89C-25.6501 633.522 -24.7014 638.307 -23.6075 643.285H-20.8823C-22.0044 638.202 -22.9735 633.327 -23.7963 628.611C-26.9076 610.765 -29.2512 592.658 -31.1332 577.3Z" fill="#1D71B8"/>
<path d="M-19.9748 600.926C-20.6047 596.776 -21.2574 592.485 -21.9512 588.273C-24.8932 570.398 -25.0928 554.475 -22.5624 539.59C-21.3778 532.627 -20.3445 525.508 -19.345 518.623C-18.4398 512.389 -17.5042 505.944 -16.4603 499.636C-15.7243 495.192 -14.5188 490.942 -12.8785 487.004C-8.04791 475.405 1.81583 468.41 11.3556 461.644L12.624 460.745C13.6364 460.026 14.6543 459.31 15.6703 458.592C21.768 454.289 28.0741 449.84 33.6516 444.764C43.3593 435.919 51.1385 424.865 56.7573 411.907C65.4157 391.932 66.3708 372.302 59.6777 351.89C53.9192 334.331 46.5518 319.726 37.1552 307.236C30.3755 298.226 24.088 291.99 17.3712 287.609C10.8656 283.369 3.96116 279.561 -2.7133 275.881C-6.89143 273.579 -11.2081 271.197 -15.386 268.734C-25.3507 262.857 -32.2508 256.669 -37.1052 249.26C-42.9397 240.357 -45.3506 230.338 -44.477 218.634C-43.7885 209.451 -39.2896 201.389 -30.3126 193.266C-26.5583 189.869 -22.348 186.843 -18.274 183.919C-14.1307 180.942 -9.84646 177.864 -6.02956 174.386C1.40289 167.612 8.48076 160.2 15.3255 153.03C17.6964 150.546 20.1484 147.98 22.579 145.475C25.3629 142.607 27.6143 139.985 29.4573 137.456C35.8609 128.664 43.7939 121.265 53.0356 115.462C58.4104 112.086 64.1246 109.03 69.6511 106.075C74.4535 103.506 79.4184 100.851 84.1483 97.9936C90.3056 94.2739 96.2128 89.9445 101.926 85.7592C103.26 84.7826 104.59 83.8069 105.928 82.8367C108.212 81.1811 110.387 79.3032 112.492 77.4921C113.454 76.661 114.416 75.8322 115.391 75.0197C117.308 73.4253 119.284 71.8322 121.193 70.2927C125.553 66.7811 130.061 63.15 134.171 59.2289C137.257 56.2789 138.824 52.7794 138.724 49.0642C138.627 45.3741 136.875 41.7289 133.659 38.5182C126.445 31.3188 117.73 26.6564 109.3 22.1493C107.676 21.2821 106.053 20.4138 104.437 19.5269L103.605 19.0703C95.8561 14.825 88.5366 10.814 82.468 4.16846C77.4076 -1.37643 75.0563 -7.81388 75.2796 -15.5095C75.4117 -20.0383 76.2867 -24.611 77.9713 -29.4749H77.4844C75.826 -24.6351 74.9619 -20.0766 74.8287 -15.5565C74.602 -7.72956 76.9956 -1.18155 82.1481 4.46538C88.2731 11.1721 95.9699 15.3899 103.414 19.4699L104.246 19.9254C105.863 20.8134 107.487 21.6818 109.113 22.5501C117.512 27.0407 126.195 31.6823 133.355 38.8304C136.478 41.95 138.179 45.478 138.273 49.0411C138.369 52.58 136.884 55.9396 133.975 58.7667C133.935 58.8062 133.893 58.8468 133.85 58.886C129.749 62.7941 125.251 66.4207 120.898 69.9269C118.986 71.4676 117.008 73.0629 115.091 74.6582C114.113 75.4729 113.149 76.304 112.185 77.1342C110.089 78.9431 107.919 80.8122 105.649 82.4602C104.311 83.4292 102.979 84.4081 101.644 85.3838C95.9386 89.5632 90.037 93.8864 83.8978 97.5974C79.1778 100.449 74.2161 103.102 69.4179 105.667C63.8859 108.626 58.1655 111.685 52.7787 115.068C43.4916 120.9 35.5228 128.336 29.0865 137.167C27.2555 139.68 25.018 142.289 22.2451 145.144C19.8147 147.648 17.3603 150.217 14.9905 152.7C8.15016 159.864 1.0765 167.27 -6.34284 174.036C-10.1424 177.498 -14.4191 180.57 -18.5537 183.54C-22.6342 186.471 -26.8553 189.502 -30.6258 192.915C-39.6777 201.106 -44.2285 209.265 -44.9246 218.565C-45.8082 230.379 -43.3711 240.494 -37.477 249.493C-32.5794 256.968 -25.6229 263.208 -15.5909 269.124C-11.4075 271.591 -7.08636 273.973 -2.90735 276.278C3.76179 279.954 10.6565 283.757 17.1467 287.988C23.8147 292.336 30.0611 298.534 36.8051 307.495C46.1682 319.941 53.5116 334.498 59.2516 352.006C65.9078 372.302 64.9572 391.828 56.3443 411.698C50.7473 424.601 43.0114 435.605 33.3361 444.416C27.777 449.476 21.4829 453.916 15.3948 458.211C14.3779 458.929 13.3611 459.646 12.3498 460.365L11.0803 461.265C1.49168 468.064 -8.4198 475.093 -13.2959 486.8C-14.9482 490.77 -16.1622 495.052 -16.9048 499.529C-17.951 505.841 -18.8854 512.289 -19.7906 518.524C-20.7901 525.407 -21.8231 532.524 -23.006 539.481C-25.5459 554.416 -25.3465 570.391 -22.3955 588.314C-21.7017 592.525 -21.0503 596.814 -20.4215 600.962C-19.0708 609.857 -17.6723 619.055 -15.7752 628.032C-14.6966 633.132 -13.3057 638.239 -11.8162 643.285H-11.3555C-12.8537 638.216 -14.2533 633.086 -15.3362 627.969C-17.23 619.006 -18.6263 609.815 -19.9748 600.926Z" fill="#B2B2B2"/>
<path d="M14.9893 393.34C13.4163 394.869 11.6342 396.249 9.64493 397.482C2.619 401.827 -5.52654 404.278 -15.2604 404.972C-27.598 405.852 -40.2003 408.522 -54.9209 413.376C-74.3298 419.776 -85.4317 416.927 -100.613 401.652C-103.082 399.166 -105.219 396.276 -107.288 393.478L-107.503 393.188C-108.869 391.34 -110.288 389.478 -111.66 387.677C-115.509 382.623 -119.488 377.398 -122.771 371.9C-128.753 361.874 -130.667 352.656 -128.621 343.716C-127.275 337.839 -124.515 332.591 -120.184 327.669C-120.103 327.577 -119.962 327.576 -119.866 327.666C-119.772 327.753 -119.758 327.896 -119.838 327.987C-124.123 332.854 -126.852 338.045 -128.182 343.851C-130.2 352.668 -128.305 361.773 -122.39 371.684C-119.121 377.16 -115.15 382.374 -111.311 387.415C-109.937 389.217 -108.518 391.082 -107.149 392.933L-106.934 393.223C-104.877 396.005 -102.751 398.882 -100.308 401.341C-85.2854 416.457 -74.2973 419.276 -55.0876 412.94C-40.3335 408.075 -27.6988 405.399 -15.3232 404.519C-5.65997 403.828 2.42386 401.397 9.38916 397.088C18.3369 391.552 23.0136 382.943 23.2845 371.512C23.8657 346.919 5.94725 326.71 -19.3213 323.459C-27.5048 322.406 -35.8164 321.191 -43.8558 320.018C-53.4194 318.621 -63.3071 317.177 -73.0441 315.993C-88.7501 314.085 -101.595 316.072 -112.309 322.073C-114.111 323.082 -115.735 324.478 -117.304 325.831C-118.034 326.457 -118.786 327.105 -119.552 327.708C-119.644 327.783 -119.788 327.761 -119.868 327.658C-119.949 327.557 -119.93 327.414 -119.843 327.34C-119.088 326.742 -118.336 326.097 -117.61 325.473C-116.025 324.11 -114.386 322.697 -112.548 321.668C-101.755 315.623 -88.8247 313.621 -73.0225 315.542C-63.2822 316.725 -53.389 318.169 -43.8232 319.566C-35.7871 320.741 -27.4766 321.954 -19.2973 323.007C-6.78626 324.616 4.43375 330.522 12.2922 339.635C19.9489 348.512 24.012 359.848 23.7345 371.555C23.5209 380.6 20.583 387.902 14.9893 393.34Z" fill="#B2B2B2"/>
<path d="M9.77948 388C4.35608 393.271 -2.85835 395.825 -12.8817 396.028C-29.6013 396.368 -44.5743 398.471 -58.653 402.458C-73.1273 406.554 -85.9161 402.556 -96.6657 390.571C-100.278 386.543 -104.909 381.169 -108.7 375.306C-113.052 368.569 -115.686 361.789 -116.523 355.15C-117.579 346.773 -115.129 339.259 -109.244 332.812C-109.158 332.717 -109.02 332.723 -108.925 332.81C-108.831 332.901 -108.82 333.045 -108.903 333.134C-114.702 339.485 -117.114 346.883 -116.076 355.124C-115.248 361.689 -112.642 368.403 -108.328 375.074C-104.558 380.909 -99.9417 386.264 -96.3438 390.277C-85.7263 402.113 -73.0982 406.064 -58.8037 402.017C-44.6893 398.021 -29.6825 395.912 -12.925 395.573C-3.01466 395.371 4.11206 392.854 9.45643 387.658C9.55522 387.563 9.65269 387.465 9.75237 387.367C16.7761 380.326 18.7849 371.329 15.898 359.865C11.7265 343.288 -1.99339 332.543 -21.7417 330.385C-34.0578 329.038 -46.5635 327.291 -58.6605 325.603C-62.0223 325.133 -65.383 324.663 -68.7445 324.2C-78.2561 322.894 -90.5949 322.161 -101.689 328.145C-103.365 329.049 -104.941 330.199 -106.467 331.315C-107.18 331.837 -107.897 332.358 -108.624 332.859C-108.723 332.927 -108.863 332.898 -108.938 332.791C-109.014 332.685 -108.992 332.544 -108.896 332.476C-108.171 331.977 -107.46 331.457 -106.747 330.936C-105.211 329.814 -103.623 328.656 -101.923 327.739C-90.7228 321.696 -78.2941 322.434 -68.7174 323.749C-65.3557 324.212 -61.9941 324.681 -58.6303 325.151C-46.5376 326.839 -34.035 328.587 -21.7277 329.933C-1.76582 332.114 12.1093 342.996 16.3349 359.782C19.2629 371.414 17.2172 380.545 10.0799 387.704C9.98017 387.803 9.87939 387.902 9.77948 388Z" fill="#B2B2B2"/>
<path d="M6.12833 379.196C8.52943 376.387 9.99628 372.882 10.3659 369.064C10.3897 368.814 10.2088 368.579 9.96168 368.536C9.71345 368.494 9.49321 368.66 9.47056 368.91C9.116 372.55 7.71864 375.892 5.43033 378.571C5.27402 378.755 5.30331 379.043 5.49624 379.217C5.67963 379.38 5.94405 379.38 6.10346 379.226C6.11211 379.217 6.12189 379.206 6.12833 379.196ZM-2.68839 384.566C-2.78385 384.326 -3.04604 384.195 -3.27583 384.273C-3.53493 384.361 -3.79513 384.444 -4.06066 384.523C-6.90091 385.378 -10.125 385.852 -13.9137 385.974C-14.1611 385.981 -14.3398 386.192 -14.3127 386.444C-14.2867 386.697 -14.0656 386.894 -13.8185 386.886C-9.95473 386.763 -6.65937 386.276 -3.74541 385.4C-3.47322 385.318 -3.20324 385.23 -2.93549 385.142C-2.87598 385.121 -2.82491 385.089 -2.78272 385.048C-2.66239 384.931 -2.62 384.743 -2.68839 384.566ZM8.55674 357.776C7.93554 356.233 7.15714 354.684 6.24533 353.17C5.07908 351.238 3.75631 349.475 2.31454 347.928C2.13892 347.737 1.85387 347.717 1.67826 347.884C1.49931 348.057 1.50484 348.337 1.68269 348.527C3.07672 350.023 4.35599 351.731 5.4845 353.601C6.37122 355.069 7.12251 356.572 7.72617 358.067C7.82053 358.304 8.08607 358.433 8.31698 358.354C8.37559 358.333 8.4233 358.301 8.46548 358.261C8.58582 358.144 8.62823 357.954 8.55674 357.776ZM-24.4813 386.184C-24.4964 385.932 -24.7122 385.726 -24.9604 385.723C-28.5639 385.684 -32.2811 385.82 -36.0114 386.122C-36.2574 386.142 -36.4266 386.362 -36.3886 386.612C-36.3496 386.864 -36.1198 387.052 -35.8738 387.032C-32.1717 386.731 -28.4793 386.597 -24.9029 386.635C-24.7859 386.635 -24.6817 386.593 -24.6069 386.518C-24.5214 386.436 -24.4737 386.318 -24.4813 386.184ZM-46.376 387.841C-46.4335 387.591 -46.6775 387.422 -46.9182 387.46C-49.6099 387.897 -52.4209 388.426 -55.2675 389.036C-56.0513 389.202 -56.845 389.355 -57.6427 389.492C-57.8844 389.536 -58.0319 389.77 -57.9735 390.018C-57.9149 390.266 -57.6709 390.434 -57.4291 390.391C-56.6194 390.253 -55.8161 390.098 -55.0204 389.929C-52.1844 389.323 -49.3908 388.795 -46.7133 388.363C-46.6253 388.348 -46.5494 388.308 -46.4921 388.253C-46.3902 388.152 -46.3403 388 -46.376 387.841ZM-6.9151 341.86C-6.83051 341.629 -6.95531 341.359 -7.18932 341.259C-10.4285 339.872 -14.1393 338.969 -18.2153 338.591C-18.4646 338.564 -18.6695 338.753 -18.6762 339C-18.6793 339.251 -18.4821 339.473 -18.2326 339.496C-14.2521 339.872 -10.6379 340.744 -7.48857 342.097C-7.31629 342.169 -7.13403 342.134 -7.01481 342.019C-6.97151 341.975 -6.93575 341.923 -6.9151 341.86ZM-68.0226 390.863C-68.0421 390.611 -68.2568 390.408 -68.505 390.408C-69.8829 390.408 -71.2705 390.362 -72.6299 390.273C-74.9271 390.126 -77.1819 389.649 -79.3359 388.858C-79.5754 388.771 -79.8247 388.892 -79.8931 389.127C-79.9635 389.363 -79.8247 389.626 -79.5863 389.715C-77.3488 390.536 -75.005 391.031 -72.6212 391.185C-71.2434 391.274 -69.8351 391.319 -68.4378 391.319C-68.3219 391.319 -68.2222 391.275 -68.1474 391.202C-68.0617 391.119 -68.0128 390.998 -68.0226 390.863ZM-28.8554 338.273C-28.8512 338.021 -29.0483 337.799 -29.2965 337.777C-32.8264 337.442 -36.4428 337.018 -40.3509 336.485C-40.6003 336.451 -40.8136 336.627 -40.8278 336.875C-40.8429 337.124 -40.6544 337.354 -40.4051 337.39C-36.485 337.925 -32.8568 338.35 -29.315 338.685C-29.184 338.696 -29.0657 338.652 -28.9813 338.571C-28.9065 338.496 -28.8587 338.392 -28.8554 338.273ZM-88.7889 383.578C-88.6317 383.394 -88.6621 383.106 -88.8561 382.932C-89.7311 382.151 -90.6221 381.284 -91.5023 380.361C-93.0776 378.708 -94.6634 376.826 -96.3536 374.609L-96.5021 374.414C-96.6582 374.207 -96.9411 374.157 -97.1351 374.301C-97.3336 374.438 -97.3585 374.728 -97.2035 374.935L-97.0527 375.132C-95.3388 377.381 -93.7278 379.29 -92.1278 380.97C-91.2293 381.913 -90.3185 382.797 -89.4232 383.598C-89.24 383.762 -88.9753 383.762 -88.814 383.605C-88.8053 383.597 -88.7966 383.587 -88.7889 383.578ZM-50.978 335.325C-50.9573 335.077 -51.1394 334.842 -51.3876 334.801C-54.6257 334.263 -58.1273 333.65 -62.4071 332.87C-62.6554 332.824 -62.8765 332.991 -62.9027 333.236C-62.9298 333.485 -62.7497 333.722 -62.5026 333.768C-58.2161 334.548 -54.7103 335.162 -51.468 335.702C-51.3259 335.725 -51.1936 335.68 -51.1025 335.591C-51.0333 335.524 -50.9889 335.433 -50.978 335.325ZM-102.342 364.643C-103.922 360.907 -104.637 357.361 -104.521 353.809C-104.512 353.558 -104.707 353.334 -104.955 353.306C-105.204 353.28 -105.412 353.461 -105.422 353.711C-105.54 357.351 -104.78 361.132 -103.166 364.949C-103.065 365.186 -102.799 365.309 -102.573 365.226C-102.517 365.205 -102.469 365.174 -102.43 365.136C-102.306 365.017 -102.266 364.823 -102.342 364.643ZM-73.0408 331.554C-73.0353 331.304 -73.2338 331.082 -73.4831 331.058C-77.4541 330.684 -81.1919 330.797 -84.5903 331.398C-84.8343 331.438 -84.9784 331.676 -84.9189 331.924C-84.8581 332.172 -84.6143 332.34 -84.3714 332.297C-81.0509 331.71 -77.3921 331.599 -73.4982 331.968C-73.3681 331.979 -73.2511 331.935 -73.1665 331.853C-73.0894 331.778 -73.0428 331.675 -73.0408 331.554Z" fill="#B2B2B2"/>
<path d="M596.517 41.6971L596.712 43.2761C597.773 51.898 598.874 60.8114 598.145 69.2099C597.616 75.3067 596.906 81.4857 596.219 87.461C594.952 98.4767 593.642 109.87 593.401 121.307C593.286 126.851 591.469 132.386 589.706 137.072C585.675 147.79 576.404 153.894 567.438 159.798L566.17 160.633C563.515 162.387 560.785 164.139 558.144 165.83C551.573 170.047 544.779 174.407 538.472 179.224C531.662 184.432 525.666 191.425 519.603 201.236C506.246 222.866 504.109 246.581 513.256 271.723C517.981 284.715 523.7 295.453 530.74 304.548C538.021 313.953 545.604 321.221 553.92 326.767C562.513 332.501 571.935 336.448 581.048 340.266C582.284 340.785 583.522 341.303 584.757 341.827C595.585 346.409 606.834 351.889 615.741 360.89C626.183 371.44 631.82 384.312 632.496 399.149C633.004 410.297 628.667 419.275 619.603 425.843C612.637 430.886 605.204 435.57 598.017 440.103C592.62 443.505 587.039 447.022 581.677 450.677C575.896 454.619 570.559 459.148 565.808 464.139C561.337 468.84 557.129 473.92 553.058 478.833C550.956 481.371 548.781 483.994 546.604 486.529C543.585 490.034 540.357 493.747 536.955 497.188C535.533 498.624 534.124 500.129 532.761 501.585C528.927 505.677 524.963 509.907 520.398 512.984C514.564 516.919 507.986 520.076 501.625 523.129C499.371 524.211 497.04 525.328 494.77 526.467C480.301 533.733 469.366 542.63 461.339 553.678C457.121 559.486 455.599 565.537 456.942 571.179C458.25 576.668 462.239 581.562 468.479 585.331C472.706 587.885 477.203 590.038 481.55 592.121C484.886 593.718 488.336 595.371 491.612 597.181C500.922 602.327 507.279 607.709 508.051 617.254C508.34 620.856 508.028 624.812 507.064 629.703C505.743 636.402 503.068 642.405 499.731 648.472H502.908C505.983 642.701 508.438 636.909 509.716 630.428C510.73 625.287 511.056 621.093 510.745 617.232C509.814 605.738 501.554 599.657 492.769 594.801C489.418 592.95 485.927 591.278 482.554 589.66C478.27 587.609 473.839 585.486 469.732 583.006C464.201 579.664 460.686 575.419 459.567 570.726C458.413 565.883 459.793 560.583 463.558 555.402C471.351 544.682 481.998 536.024 496.111 528.941C498.362 527.81 500.682 526.696 502.925 525.618C509.367 522.529 516.026 519.333 522.008 515.297C526.801 512.066 530.858 507.734 534.785 503.545C536.137 502.102 537.535 500.608 538.934 499.195C542.389 495.699 545.653 491.951 548.697 488.414C550.891 485.861 553.072 483.229 555.182 480.681C559.225 475.799 563.407 470.752 567.821 466.113C572.448 461.246 577.657 456.829 583.298 452.983C588.623 449.352 594.184 445.848 599.563 442.456C606.783 437.906 614.249 433.198 621.278 428.109C631.061 421.027 635.746 411.307 635.195 399.228C634.485 383.644 628.557 370.119 617.578 359.027C608.302 349.653 596.743 344.011 585.637 339.31C584.4 338.787 583.159 338.267 581.918 337.746C572.934 333.983 563.644 330.089 555.286 324.516C547.246 319.152 539.896 312.101 532.821 302.961C525.974 294.116 520.402 283.646 515.785 270.948C506.944 246.646 509.009 223.721 521.926 202.809C527.823 193.259 533.629 186.475 540.2 181.454C546.425 176.696 553.176 172.364 559.709 168.175C562.356 166.477 565.091 164.722 567.761 162.959L569.025 162.125C578.318 156.007 587.926 149.681 592.241 138.208C594.082 133.317 595.979 127.513 596.104 121.569C596.341 110.257 597.643 98.9288 598.904 87.9756C599.593 81.9806 600.306 75.783 600.838 69.6501C601.59 60.9634 600.473 51.9002 599.392 43.1359L599.2 41.5614C597.313 26.1658 594.964 8.01428 591.841 -9.89325C591.034 -14.525 590.085 -19.3101 588.991 -24.2878H586.266C587.388 -19.2049 588.357 -14.3301 589.18 -9.61383C592.291 8.23225 594.635 26.3389 596.517 41.6971Z" fill="#1D71B8"/>
<path d="M571.583 13.8003C572.081 16.1666 572.581 18.5304 573.086 20.8936C576.031 34.6565 578.461 49.35 576.322 63.5531C575.23 70.8086 573.774 78.1109 572.367 85.1747C570.842 92.8253 569.265 100.736 568.145 108.616C565.829 124.878 557.627 137.777 542.333 149.203C533.943 155.473 524.273 163.221 516.161 173.154C508.718 182.272 502.73 192.193 498.366 202.648C491.142 219.963 488.989 236.439 491.785 253.02C494.706 270.329 501.42 287.562 513.556 308.892C519.203 318.812 526.974 328.061 537.316 337.168C544.657 343.631 553.15 348.96 561.363 354.116L563.716 355.593C573.293 361.623 579.575 367.561 583.49 374.282C592.549 389.832 590.355 406.008 577.472 418.664C574.249 421.822 570.792 424.863 567.448 427.797C564.865 430.064 562.197 432.406 559.649 434.797C543.67 449.787 530.516 463.781 519.443 477.564C513.175 485.363 504.785 490.696 496.014 495.923C491.489 498.62 486.824 501.271 482.313 503.835C473.887 508.626 465.173 513.579 456.998 519.031C443.337 528.145 429.693 534.754 415.283 539.235C397.996 544.614 381.487 551.337 369.034 556.594C363.053 559.121 356.488 562.487 354.283 570.503C353.057 574.961 353.762 578.08 356.799 581.624C359.993 585.347 364.036 587.358 369.917 588.144C382.262 589.798 395.028 591.509 407.328 596.424C410.739 597.786 414.222 599.135 417.59 600.439C430.255 605.342 443.351 610.411 455.458 617.359C468.088 624.606 473.54 635.205 470.807 647.202C470.71 647.628 470.604 648.048 470.502 648.472H470.974C471.064 648.093 471.159 647.717 471.246 647.337C474.029 635.115 468.493 624.332 455.657 616.965C443.519 610 430.406 604.925 417.724 600.014C414.357 598.71 410.873 597.364 407.465 596.001C395.111 591.064 382.316 589.35 369.945 587.694C364.188 586.922 360.237 584.962 357.131 581.341C354.214 577.939 353.537 574.941 354.717 570.655C356.874 562.817 363.339 559.504 369.234 557.019C381.677 551.764 398.176 545.045 415.443 539.673C429.891 535.18 443.57 528.555 457.265 519.418C465.428 513.973 474.135 509.023 482.554 504.237C487.068 501.672 491.735 499.02 496.265 496.319C504.717 491.284 513.496 485.713 519.799 477.868C530.863 464.099 543.996 450.128 559.968 435.142C562.511 432.756 565.178 430.415 567.757 428.152C571.105 425.214 574.565 422.166 577.797 419.002C590.834 406.198 593.048 389.821 583.874 374.072C579.917 367.28 573.58 361.287 563.933 355.21L561.579 353.732C553.383 348.588 544.909 343.27 537.597 336.832C527.297 327.765 519.56 318.557 513.944 308.687C501.837 287.408 495.14 270.225 492.23 252.974C489.447 236.483 491.591 220.087 498.784 202.85C503.131 192.433 509.097 182.546 516.516 173.46C524.599 163.559 534.246 155.833 542.616 149.578C558.004 138.078 566.257 125.092 568.589 108.713C569.708 100.846 571.285 92.9415 572.81 85.2951C574.217 78.2282 575.674 70.9214 576.77 63.6538C578.918 49.3785 576.48 34.6356 573.526 20.829C573.02 18.465 572.522 16.1018 572.024 13.7368C569.749 2.94887 567.397 -8.20683 564.379 -19.0297C563.889 -20.7872 563.347 -22.5402 562.771 -24.2878H562.305C562.893 -22.5084 563.447 -20.7235 563.945 -18.9367C566.96 -8.12902 569.31 3.01997 571.583 13.8003Z" fill="#B2B2B2"/>
<path d="M585.359 18.0707C585.989 22.2208 586.641 26.5118 587.335 30.7242C590.277 48.599 590.477 64.5221 587.946 79.4074C586.762 86.3704 585.729 93.4889 584.729 100.374C583.824 106.608 582.888 113.053 581.844 119.361C581.108 123.805 579.903 128.056 578.263 131.993C573.432 143.592 563.568 150.587 554.028 157.353L552.76 158.252C551.748 158.971 550.73 159.688 549.714 160.405C543.616 164.708 537.31 169.157 531.732 174.233C522.025 183.079 514.246 194.132 508.627 207.09C499.968 227.065 499.013 246.695 505.706 267.107C511.465 284.666 518.832 299.271 528.229 311.761C535.009 320.771 541.296 327.007 548.013 331.388C554.518 335.628 561.423 339.436 568.097 343.116C572.275 345.418 576.592 347.8 580.77 350.263C590.735 356.14 597.635 362.328 602.489 369.737C608.324 378.64 610.735 388.659 609.861 400.363C609.172 409.546 604.674 417.608 595.697 425.731C591.942 429.128 587.732 432.154 583.658 435.078C579.515 438.055 575.231 441.133 571.414 444.611C563.981 451.386 556.903 458.797 550.059 465.967C547.688 468.451 545.236 471.018 542.805 473.523C540.021 476.39 537.77 479.012 535.927 481.541C529.523 490.333 521.59 497.732 512.348 503.535C506.974 506.911 501.259 509.967 495.733 512.923C490.931 515.492 485.966 518.146 481.236 521.004C475.078 524.723 469.171 529.053 463.458 533.238C462.124 534.215 460.794 535.19 459.456 536.16C457.172 537.816 454.997 539.694 452.892 541.505C451.93 542.336 450.968 543.165 449.993 543.977C448.076 545.572 446.1 547.165 444.191 548.705C439.831 552.216 435.324 555.847 431.213 559.768C428.128 562.718 426.56 566.218 426.66 569.933C426.757 573.623 428.509 577.268 431.726 580.479C438.939 587.678 447.654 592.341 456.084 596.848C457.708 597.715 459.331 598.583 460.948 599.47L461.779 599.927C469.528 604.172 476.847 608.183 482.916 614.829C487.976 620.374 490.328 626.811 490.104 634.507C489.972 639.036 489.097 643.608 487.413 648.472H487.9C489.558 643.632 490.422 639.074 490.555 634.554C490.782 626.727 488.388 620.179 483.236 614.532C477.111 607.825 469.414 603.607 461.97 599.527L461.138 599.072C459.521 598.184 457.897 597.315 456.271 596.447C447.873 591.956 439.189 587.315 432.029 580.167C428.906 577.047 427.205 573.519 427.111 569.956C427.015 566.417 428.501 563.058 431.409 560.23C431.449 560.191 431.491 560.15 431.534 560.111C435.635 556.203 440.134 552.576 444.486 549.07C446.398 547.53 448.376 545.934 450.293 544.339C451.271 543.524 452.235 542.693 453.199 541.863C455.295 540.054 457.465 538.185 459.736 536.537C461.073 535.568 462.405 534.589 463.74 533.613C469.445 529.434 475.347 525.111 481.486 521.4C486.206 518.549 491.168 515.896 495.966 513.33C501.498 510.371 507.219 507.312 512.605 503.929C521.892 498.097 529.861 490.661 536.298 481.83C538.128 479.317 540.366 476.708 543.139 473.853C545.569 471.349 548.024 468.78 550.394 466.297C557.234 459.133 564.308 451.727 571.727 444.961C575.526 441.499 579.803 438.427 583.938 435.458C588.018 432.526 592.239 429.495 596.01 426.083C605.062 417.891 609.613 409.732 610.309 400.432C611.192 388.619 608.755 378.503 602.861 369.505C597.963 362.029 591.007 355.79 580.975 349.874C576.791 347.407 572.47 345.024 568.291 342.719C561.622 339.043 554.728 335.24 548.237 331.009C541.569 326.661 535.323 320.463 528.579 311.502C519.216 299.056 511.872 284.5 506.132 266.991C499.476 246.695 500.427 227.169 509.04 207.3C514.637 194.396 522.373 183.392 532.048 174.582C537.607 169.522 543.901 165.081 549.989 160.786C551.006 160.069 552.023 159.351 553.034 158.632L554.304 157.732C563.892 150.933 573.804 143.904 578.68 132.197C580.332 128.228 581.546 123.945 582.289 119.469C583.335 113.156 584.269 106.708 585.175 100.473C586.174 93.5898 587.207 86.4733 588.39 79.5159C590.93 64.5813 590.731 48.6066 587.78 30.6827C587.086 26.4726 586.434 22.1835 585.806 18.0355C584.455 9.13981 583.056 -0.0579357 581.159 -9.03458C580.081 -14.1352 578.69 -19.2421 577.2 -24.2878H576.74C578.238 -19.219 579.637 -14.089 580.72 -8.97224C582.614 -0.00861168 584.01 9.18267 585.359 18.0707Z" fill="#B2B2B2"/>
<path d="M43.789 505.438C122.474 462.476 193.432 533.642 170.104 566.913C143.648 595.868 101.07 555.042 55.3434 614.861C48.719 621.321 41.6981 625.644 32.2308 627.302C-22.3408 637.053 -20.3713 540.469 43.789 505.438Z" fill="#6DAD3A"/>
<path d="M54.6334 76.4835L66.3195 64.6797L51.475 49.6856L66.3195 34.6915L54.6334 22.8876L39.7889 37.8817L24.9444 22.8876L13.2583 34.6915L28.1028 49.6856L13.2583 64.6797L24.9444 76.4835L39.7889 61.4894L54.6334 76.4835Z" fill="#6DAD3A"/>
<path d="M344.805 539.477C457.129 529.986 503.499 648.337 459.937 674.86C414.92 694.806 386.158 625.958 303.466 671.715C292.588 675.798 282.321 677.209 270.561 674.297C202.676 657.735 253.215 547.215 344.805 539.477Z" stroke="#1D71B8" stroke-width="3" stroke-miterlimit="10"/>
<path d="M64.9302 180.608C64.9302 164.863 77.6124 152.053 93.2008 152.053C108.789 152.053 121.471 164.863 121.471 180.608C121.471 196.354 108.789 209.164 93.2008 209.164C77.6123 209.164 64.9302 196.354 64.9302 180.608ZM110.562 180.608C110.562 170.939 102.774 163.072 93.2008 163.072C83.6276 163.072 75.8394 170.939 75.8394 180.608C75.8394 190.278 83.6277 198.145 93.2008 198.145C102.774 198.145 110.562 190.278 110.562 180.608Z" fill="#6DAD3A"/>
<path d="M110.309 620.406C110.309 619.176 111.3 618.175 112.517 618.175C113.735 618.175 114.726 619.176 114.726 620.406C114.726 621.636 113.735 622.637 112.517 622.637C111.3 622.637 110.309 621.636 110.309 620.406Z" fill="#2D2E83"/>
<path d="M93.7915 620.406C93.7915 619.176 94.782 618.175 95.9999 618.175C97.2178 618.175 98.2094 619.176 98.2094 620.406C98.2094 621.636 97.2178 622.637 95.9999 622.637C94.782 622.637 93.7915 621.636 93.7915 620.406Z" fill="#2D2E83"/>
<path d="M77.2739 620.406C77.2739 619.176 78.2644 618.175 79.4823 618.175C80.7002 618.175 81.6919 619.176 81.6919 620.406C81.6919 621.636 80.7002 622.637 79.4823 622.637C78.2644 622.637 77.2739 621.636 77.2739 620.406Z" fill="#2D2E83"/>
<path d="M60.7568 620.406C60.7568 619.176 61.7485 618.175 62.9664 618.175C64.1843 618.175 65.1748 619.176 65.1748 620.406C65.1748 621.636 64.1843 622.637 62.9664 622.637C61.7485 622.637 60.7568 621.636 60.7568 620.406Z" fill="#2D2E83"/>
<path d="M44.2393 620.406C44.2393 619.176 45.2309 618.175 46.4488 618.175C47.6667 618.175 48.6571 619.176 48.6571 620.406C48.6571 621.636 47.6667 622.637 46.4488 622.637C45.2309 622.637 44.2393 621.636 44.2393 620.406Z" fill="#2D2E83"/>
<path d="M110.309 604.417C110.309 603.187 111.3 602.187 112.517 602.187C113.735 602.187 114.726 603.187 114.726 604.417C114.726 605.648 113.735 606.648 112.517 606.648C111.3 606.648 110.309 605.648 110.309 604.417Z" fill="#2D2E83"/>
<path d="M93.7915 604.417C93.7915 603.187 94.782 602.187 95.9999 602.187C97.2178 602.187 98.2094 603.187 98.2094 604.417C98.2094 605.648 97.2178 606.648 95.9999 606.648C94.782 606.648 93.7915 605.648 93.7915 604.417Z" fill="#2D2E83"/>
<path d="M77.2739 604.417C77.2739 603.187 78.2644 602.187 79.4823 602.187C80.7002 602.187 81.6919 603.187 81.6919 604.417C81.6919 605.648 80.7002 606.648 79.4823 606.648C78.2644 606.648 77.2739 605.648 77.2739 604.417Z" fill="#2D2E83"/>
<path d="M60.7568 604.417C60.7568 603.187 61.7485 602.187 62.9664 602.187C64.1843 602.187 65.1748 603.187 65.1748 604.417C65.1748 605.648 64.1843 606.648 62.9664 606.648C61.7485 606.648 60.7568 605.648 60.7568 604.417Z" fill="#2D2E83"/>
<path d="M44.2393 604.417C44.2393 603.187 45.2309 602.187 46.4488 602.187C47.6667 602.187 48.6571 603.187 48.6571 604.417C48.6571 605.648 47.6667 606.648 46.4488 606.648C45.2309 606.648 44.2393 605.648 44.2393 604.417Z" fill="#2D2E83"/>
<path d="M110.309 588.429C110.309 587.199 111.3 586.198 112.517 586.198C113.735 586.198 114.726 587.199 114.726 588.429C114.726 589.659 113.735 590.659 112.517 590.659C111.3 590.659 110.309 589.659 110.309 588.429Z" fill="#2D2E83"/>
<path d="M93.7915 588.429C93.7915 587.199 94.782 586.198 95.9999 586.198C97.2178 586.198 98.2094 587.199 98.2094 588.429C98.2094 589.659 97.2178 590.659 95.9999 590.659C94.782 590.659 93.7915 589.659 93.7915 588.429Z" fill="#2D2E83"/>
<path d="M77.2739 588.429C77.2739 587.199 78.2644 586.198 79.4823 586.198C80.7002 586.198 81.6919 587.199 81.6919 588.429C81.6919 589.659 80.7002 590.659 79.4823 590.659C78.2644 590.659 77.2739 589.659 77.2739 588.429Z" fill="#2D2E83"/>
<path d="M60.7568 588.429C60.7568 587.199 61.7485 586.198 62.9664 586.198C64.1843 586.198 65.1748 587.199 65.1748 588.429C65.1748 589.659 64.1843 590.659 62.9664 590.659C61.7485 590.659 60.7568 589.659 60.7568 588.429Z" fill="#2D2E83"/>
<path d="M44.2393 588.429C44.2393 587.199 45.2309 586.198 46.4488 586.198C47.6667 586.198 48.6571 587.199 48.6571 588.429C48.6571 589.659 47.6667 590.659 46.4488 590.659C45.2309 590.659 44.2393 589.659 44.2393 588.429Z" fill="#2D2E83"/>
<path d="M110.309 572.44C110.309 571.21 111.3 570.21 112.517 570.21C113.735 570.21 114.726 571.21 114.726 572.44C114.726 573.67 113.735 574.671 112.517 574.671C111.3 574.671 110.309 573.67 110.309 572.44Z" fill="#2D2E83"/>
<path d="M93.7915 572.44C93.7915 571.21 94.782 570.21 95.9999 570.21C97.2178 570.21 98.2094 571.21 98.2094 572.44C98.2094 573.67 97.2178 574.671 95.9999 574.671C94.782 574.671 93.7915 573.67 93.7915 572.44Z" fill="#2D2E83"/>
<path d="M77.2739 572.44C77.2739 571.21 78.2644 570.21 79.4823 570.21C80.7002 570.21 81.6919 571.21 81.6919 572.44C81.6919 573.67 80.7002 574.671 79.4823 574.671C78.2644 574.671 77.2739 573.67 77.2739 572.44Z" fill="#2D2E83"/>
<path d="M60.7568 572.44C60.7568 571.21 61.7485 570.21 62.9664 570.21C64.1843 570.21 65.1748 571.21 65.1748 572.44C65.1748 573.67 64.1843 574.671 62.9664 574.671C61.7485 574.671 60.7568 573.67 60.7568 572.44Z" fill="#2D2E83"/>
<path d="M44.2393 572.44C44.2393 571.21 45.2309 570.21 46.4488 570.21C47.6667 570.21 48.6571 571.21 48.6571 572.44C48.6571 573.67 47.6667 574.671 46.4488 574.671C45.2309 574.671 44.2393 573.67 44.2393 572.44Z" fill="#2D2E83"/>
<path d="M110.309 556.452C110.309 555.221 111.3 554.221 112.517 554.221C113.735 554.221 114.726 555.221 114.726 556.452C114.726 557.682 113.735 558.682 112.517 558.682C111.3 558.682 110.309 557.682 110.309 556.452Z" fill="#2D2E83"/>
<path d="M93.7915 556.452C93.7915 555.221 94.782 554.221 95.9999 554.221C97.2178 554.221 98.2094 555.221 98.2094 556.452C98.2094 557.682 97.2178 558.682 95.9999 558.682C94.782 558.682 93.7915 557.682 93.7915 556.452Z" fill="#2D2E83"/>
<path d="M77.2739 556.452C77.2739 555.221 78.2644 554.221 79.4823 554.221C80.7002 554.221 81.6919 555.221 81.6919 556.452C81.6919 557.682 80.7002 558.682 79.4823 558.682C78.2644 558.682 77.2739 557.682 77.2739 556.452Z" fill="#2D2E83"/>
<path d="M60.7568 556.452C60.7568 555.221 61.7485 554.221 62.9664 554.221C64.1843 554.221 65.1748 555.221 65.1748 556.452C65.1748 557.682 64.1843 558.682 62.9664 558.682C61.7485 558.682 60.7568 557.682 60.7568 556.452Z" fill="#2D2E83"/>
<path d="M44.2393 556.452C44.2393 555.221 45.2309 554.221 46.4488 554.221C47.6667 554.221 48.6571 555.221 48.6571 556.452C48.6571 557.682 47.6667 558.682 46.4488 558.682C45.2309 558.682 44.2393 557.682 44.2393 556.452Z" fill="#2D2E83"/>
<path d="M110.309 540.463C110.309 539.233 111.3 538.232 112.517 538.232C113.735 538.232 114.726 539.233 114.726 540.463C114.726 541.693 113.735 542.694 112.517 542.694C111.3 542.694 110.309 541.693 110.309 540.463Z" fill="#2D2E83"/>
<path d="M93.7915 540.463C93.7915 539.233 94.782 538.232 95.9999 538.232C97.2178 538.232 98.2094 539.233 98.2094 540.463C98.2094 541.693 97.2178 542.694 95.9999 542.694C94.782 542.694 93.7915 541.693 93.7915 540.463Z" fill="#2D2E83"/>
<path d="M77.2739 540.463C77.2739 539.233 78.2644 538.232 79.4823 538.232C80.7002 538.232 81.6919 539.233 81.6919 540.463C81.6919 541.693 80.7002 542.694 79.4823 542.694C78.2644 542.694 77.2739 541.693 77.2739 540.463Z" fill="#2D2E83"/>
<path d="M60.7568 540.463C60.7568 539.233 61.7485 538.232 62.9664 538.232C64.1843 538.232 65.1748 539.233 65.1748 540.463C65.1748 541.693 64.1843 542.694 62.9664 542.694C61.7485 542.694 60.7568 541.693 60.7568 540.463Z" fill="#2D2E83"/>
<path d="M44.2393 540.463C44.2393 539.233 45.2309 538.232 46.4488 538.232C47.6667 538.232 48.6571 539.233 48.6571 540.463C48.6571 541.693 47.6667 542.694 46.4488 542.694C45.2309 542.694 44.2393 541.693 44.2393 540.463Z" fill="#2D2E83"/>
<path d="M337.363 584.346C337.363 574.492 345.3 566.475 355.055 566.475C364.811 566.475 372.747 574.492 372.747 584.346C372.747 594.2 364.811 602.216 355.055 602.216C345.3 602.216 337.363 594.2 337.363 584.346ZM369.964 584.346C369.964 576.042 363.276 569.286 355.055 569.286C346.834 569.286 340.146 576.042 340.146 584.346C340.146 592.649 346.834 599.405 355.055 599.405C363.276 599.405 369.964 592.649 369.964 584.346Z" fill="#E51F2F"/>
<path d="M321.909 584.346C321.909 565.885 336.778 550.865 355.055 550.865C373.332 550.865 388.201 565.885 388.201 584.346C388.201 602.806 373.332 617.826 355.055 617.826C336.778 617.826 321.909 602.807 321.909 584.346ZM375.41 584.346C375.41 573.008 366.279 563.785 355.055 563.785C343.831 563.785 334.699 573.008 334.699 584.346C334.699 595.683 343.831 604.906 355.055 604.906C366.279 604.906 375.41 595.683 375.41 584.346Z" fill="url(#paint7_linear_1372_1964)"/>
<path d="M95.8651 522.761C94.6709 522.644 93.4737 522.552 92.2829 522.406C85.7779 521.609 79.5175 520.04 73.9454 516.361C72.2415 515.236 70.7357 513.88 69.5206 512.216C66.5341 508.128 66.7048 503.271 69.9596 499.394C72.4987 496.369 75.7754 494.418 79.2946 492.812C79.6272 492.661 79.805 492.74 79.9585 493.055C80.8403 494.87 81.7697 496.658 82.8599 498.356C83.1261 498.77 82.8627 498.877 82.5626 499.006C81.1947 499.59 79.8586 500.24 78.5811 501.008C77.3936 501.722 76.2727 502.522 75.3346 503.56C73.8135 505.245 73.7945 506.837 75.3101 508.526C76.7545 510.135 78.5796 511.199 80.5015 512.098C84.2374 513.847 88.1901 514.821 92.2488 515.427C95.9864 515.985 99.7476 516.102 103.505 515.916C109.819 515.602 115.968 514.481 121.666 511.524C123.048 510.807 124.343 509.954 125.441 508.823C127.31 506.896 127.314 505.175 125.419 503.293C123.809 501.695 121.823 500.705 119.775 499.829C119.3 499.626 118.819 499.438 118.335 499.258C118.04 499.149 117.976 498.994 118.15 498.722C119.249 497.004 120.175 495.189 121.089 493.368C121.231 493.087 121.402 492.989 121.707 493.117C125.445 494.677 128.909 496.637 131.461 499.929C132.542 501.323 133.209 502.908 133.563 504.635V507.634C133.264 508.975 132.846 510.267 132.121 511.446C130.565 513.976 128.332 515.754 125.804 517.172C120.178 520.329 114.028 521.674 107.711 522.407C106.476 522.55 105.236 522.644 103.999 522.761L95.8651 522.761Z" fill="#E51F2F"/>
<path d="M120.434 476.716C120.419 478.166 119.784 480.35 118.983 482.489C117.11 487.492 114.485 492.106 111.699 496.63C108.391 502.003 104.802 507.182 101.012 512.219C100.518 512.875 100.506 512.877 100.016 512.22C94.4358 504.729 89.1564 497.039 84.8332 488.721C83.4423 486.045 82.2437 483.287 81.3386 480.395C80.0183 476.177 80.4982 472.075 82.2341 468.142C85.2139 461.391 90.3898 457.283 97.6224 456.15C105.852 454.86 113.628 458.846 117.765 466.036C119.529 469.101 120.419 472.498 120.434 476.716ZM100.486 482.58C104.088 482.59 107.032 479.685 107.053 476.1C107.074 472.467 104.15 469.471 100.572 469.458C96.9305 469.446 93.974 472.397 93.9723 476.046C93.9705 479.633 96.8985 482.569 100.486 482.58Z" fill="#E51F2F"/>
<path d="M299.679 171.516L295.544 184.447L293.624 183.821L297.168 172.736L295.156 172.08L291.612 183.165L289.691 182.538L293.826 169.606L299.679 171.516Z" fill="#E52031"/>
<path d="M297.697 185.259C297.196 185.06 297.008 184.59 297.197 184.102L301.468 173.12C301.658 172.633 302.115 172.417 302.615 172.616L306.602 174.198C307.103 174.397 307.292 174.868 307.102 175.355L302.831 186.337C302.641 186.825 302.186 187.04 301.685 186.841L297.697 185.259ZM301.332 184.616L304.845 175.586L302.967 174.841L299.454 183.872L301.332 184.616Z" fill="#E52031"/>
<path d="M307.947 189.659C307.466 189.417 307.32 188.931 307.552 188.462L312.772 177.905C313.004 177.437 313.476 177.263 313.957 177.506L318.41 179.752L316.692 183.224L314.887 182.314L315.746 180.578L314.113 179.754L309.82 188.435L311.453 189.259L312.569 187.002L314.374 187.912L312.399 191.906L307.947 189.659Z" fill="#E52031"/>
<path d="M315.492 193.656L313.177 192.311L314.134 190.629L314.801 191.015L321.116 181.249L325.38 183.726L318.673 195.504L316.925 194.488L322.672 184.393L321.806 183.89L315.492 193.656Z" fill="#E52031"/>
<path d="M327.233 184.886L331.421 187.639L330.373 189.267L327.877 187.625L326.094 190.391L328.51 191.979L327.462 193.607L325.045 192.018L322.635 195.76L325.131 197.401L324.082 199.029L319.894 196.275L327.233 184.886Z" fill="#E52031"/>
<path d="M337.902 192.356L331.078 201.741L331.621 202.143L329.438 205.147L327.812 203.941L328.857 202.502L326.457 200.721L325.41 202.161L323.785 200.955L325.968 197.951L326.588 198.41L334.045 189.496L337.902 192.356ZM329.452 200.536L335.138 192.714L334.441 192.197L328.23 199.628L329.452 200.536Z" fill="#E52031"/>
<path d="M344.481 197.771L335.888 208.219L334.336 206.917L337.16 203.484L335.682 202.244L332.858 205.677L331.307 204.375L339.899 193.927L344.481 197.771ZM341.701 197.961L340.224 196.721L336.909 200.751L338.387 201.991L341.701 197.961Z" fill="#E52031"/>
<path d="M350.434 203.337L352.215 205.05L342.938 214.884L341.478 213.479L345.454 209.264L348.34 206.682L348.27 206.615L342.485 210.695L341.121 209.383L344.849 203.323L344.779 203.256L342.394 206.319L338.418 210.534L336.958 209.128L346.234 199.295L348.014 201.008L343.896 207.765L343.937 207.806L350.434 203.337Z" fill="#E52031"/>
<path d="M350.592 223.558L349.2 221.927L352.846 216.394L352.507 215.998L347.707 220.178L346.39 218.636L356.573 209.768L357.89 211.311L353.962 214.731L354.339 215.172L359.382 213.059L360.775 214.69L354.766 217.157L350.592 223.558Z" fill="#E52031"/>
<path d="M353.709 227.655L352.051 225.464L353.578 224.285L354.209 225.118L356.439 223.909L355.564 222.752L361.587 215.683L362.836 217.334L358.096 222.9L358.154 222.977L364.517 219.555L365.731 221.16L353.709 227.655Z" fill="#E52031"/>
<path d="M356.61 231.741L355.107 229.509L356.697 228.418L357.128 229.06L367.033 223.058L369.799 227.168L358.672 234.807L357.538 233.121L367.075 226.574L366.513 225.739L356.61 231.741Z" fill="#E52031"/>
<path d="M359.448 236.039L370.996 229.078L372.03 230.828L367.74 233.413L369.257 235.98C369.532 236.446 369.396 236.935 368.951 237.204L363.209 240.664C362.764 240.933 362.274 240.822 361.998 240.355L359.448 236.039ZM362.132 236.794L363.066 238.378L367.026 235.991L366.091 234.408L362.132 236.794Z" fill="#E52031"/>
<path d="M374.536 235.123L377.279 240.354L375.581 241.262L374.682 239.547L364.496 244.998L363.551 243.198L373.737 237.746L372.838 236.032L374.536 235.123Z" fill="#E52031"/>
<path d="M367.603 251.487L366.462 248.984L368.208 248.172L368.642 249.124L371.079 248.439L370.478 247.117L377.886 241.556L378.746 243.443L372.914 247.821L372.954 247.91L379.903 245.982L380.739 247.816L367.603 251.487Z" fill="#E52031"/>
<path d="M373.733 254.684L369.616 256.303L368.884 254.405L381.413 249.476L383.255 254.248C383.449 254.755 383.234 255.214 382.752 255.404L375.985 258.066C375.503 258.256 375.037 258.064 374.842 257.558L373.733 254.684ZM375.523 253.98L376.22 255.787L381.054 253.886L380.356 252.078L375.523 253.98Z" fill="#E52031"/>
<path d="M374.026 266.354C373.531 266.51 373.079 266.287 372.919 265.769L371.52 261.247L384.361 257.196L384.961 259.142L380.193 260.646L380.989 263.221C381.15 263.74 380.905 264.184 380.409 264.34L374.026 266.354ZM373.412 267.362L386.251 263.31L386.853 265.256L374.013 269.307L373.412 267.362ZM373.957 262.614L374.414 264.096L378.817 262.707L378.358 261.225L373.957 262.614Z" fill="#E52031"/>
<path d="M306.032 214.69L300.849 199.62C340.656 217.965 367.035 258.551 366.001 304.862L354.932 308.747C357.425 268.954 337.514 233.604 306.032 214.69ZM325.37 333.859L320.84 347.028L448.056 302.38L376.239 277.174L380.77 290.345L415.061 302.38C336.036 330.118 383.624 313.413 325.37 333.859ZM219.962 206.398C205.016 249.84 209.503 236.8 199.775 265.079L237.219 251.938C248.222 248.069 260.335 248.069 271.337 251.938L338.963 275.672L334.433 262.502L274.894 241.606C261.598 236.937 246.954 236.937 233.661 241.606L217.341 247.334L254.274 139.974C272.887 194.069 263.901 167.952 285.444 230.57L298.48 235.146C277.099 173 286.334 199.843 254.274 106.646L224.397 193.507C192.257 202.528 166.198 225.264 152.578 255.324L167.508 250.084C179.368 229.993 197.795 214.488 219.962 206.398ZM288.586 398.373C303.355 355.439 298.997 368.109 308.774 339.683L271.337 352.823C260.335 356.691 248.222 356.691 237.219 352.823L169.587 329.087L174.118 342.257C234.64 363.497 200.212 351.41 233.661 363.154C246.955 367.821 261.598 367.823 274.894 363.154L291.212 357.427L254.274 464.786C235.665 410.693 244.639 436.779 223.108 374.19L210.071 369.614C232.229 434.021 221.917 404.043 254.274 498.114L284.17 411.209C316.302 402.233 342.344 379.514 355.954 349.442L341.089 354.66C329.231 374.789 310.78 390.317 288.586 398.373ZM153.631 296.009L142.56 299.894C141.514 346.397 168.115 386.773 207.677 405.069L202.489 389.987C171.672 371.417 151.184 336.595 153.631 296.009ZM183.182 270.902L187.711 257.733C176.385 261.707 73.5812 297.787 60.4951 302.38L132.311 327.584L127.78 314.415L93.4891 302.38C174.44 273.971 149.489 282.723 183.182 270.902Z" fill="url(#paint8_linear_1372_1964)"/>
<path d="M186.452 313.047V329.087H179.203V280.27H197.43C199.362 280.27 200.605 281.595 200.605 283.478V309.84C200.605 311.722 199.362 313.047 197.43 313.047H186.452ZM186.452 306.073H193.356V287.244H186.452V306.073Z" fill="#6DAD3A"/>
<path d="M209.302 329.087C207.368 329.087 206.126 327.762 206.126 325.879V283.478C206.126 281.595 207.368 280.27 209.302 280.27H224.698C226.632 280.27 227.875 281.595 227.875 283.478V325.879C227.875 327.762 226.632 329.087 224.698 329.087H209.302ZM220.625 322.114V287.244H213.376V322.114H220.625Z" fill="#6DAD3A"/>
<path d="M251.002 280.27V287.244H240.991V329.087H233.742V280.27H251.002Z" fill="#6DAD3A"/>
<path d="M255.489 280.27H273.44V287.244H262.738V299.099H273.095V306.073H262.738V322.114H273.44V329.087H255.489V280.27Z" fill="#6DAD3A"/>
<path d="M294.15 329.087V301.75L286.21 318.557V329.087H278.961V280.27H286.21V305.097L294.15 288.29V280.27H301.4V329.087H294.15ZM284.484 272.948H294.495L293.114 278.178H285.865L284.484 272.948Z" fill="#6DAD3A"/>
<path d="M329.705 280.27V329.087H322.456V306.073H314.515V329.087H307.266V280.27H314.515V299.099H322.456V280.27H329.705Z" fill="#6DAD3A"/>
<path d="M255.663 217.607C256.284 218.368 256.953 219.092 257.664 219.775C260.992 222.971 265.256 225.268 270.016 226.242V223.371C266.062 222.446 262.519 220.481 259.724 217.797C258.807 216.915 257.97 215.956 257.225 214.932L255.663 217.607Z" fill="#E52031"/>
<path d="M245.341 214.617C248.457 211.625 250.391 207.498 250.391 202.961V190.395H253.305L253.305 202.961C253.305 205.17 253.671 207.76 254.34 209.767C255.009 207.76 255.374 205.17 255.374 202.961L255.375 190.395H258.289L258.289 202.961C258.289 207.498 260.223 211.625 263.338 214.617C265.197 216.402 267.476 217.783 270.016 218.607V221.538C266.671 220.626 263.675 218.898 261.278 216.596C259.477 214.866 258.014 212.811 256.994 210.533C256.234 212.506 255.395 214.375 254.347 215.798L254.34 215.808L254.333 215.798C253.285 214.375 252.446 212.506 251.685 210.533C250.666 212.811 249.203 214.866 247.402 216.596C245.005 218.898 242.008 220.626 238.664 221.538V218.607C241.204 217.783 243.483 216.402 245.341 214.617Z" fill="#E52031"/>
<path d="M262.947 202.698C262.947 206.004 264.357 209.011 266.627 211.192C267.61 212.136 268.755 212.925 270.016 213.516V216.564C267.954 215.811 266.101 214.644 264.567 213.171C261.77 210.484 260.033 206.777 260.033 202.698V199.867H262.947V202.698Z" fill="#E52031"/>
<path d="M245.732 199.867H248.646V202.698C248.646 206.777 246.91 210.484 244.113 213.171C242.579 214.644 240.726 215.811 238.664 216.564V213.516C239.925 212.925 241.069 212.136 242.052 211.192C244.323 209.011 245.732 206.004 245.732 202.698V199.867Z" fill="#E52031"/>
<path d="M251.455 214.932C250.71 215.956 249.873 216.915 248.955 217.797C246.161 220.481 242.618 222.446 238.664 223.371V226.242C243.423 225.268 247.688 222.971 251.016 219.776C251.727 219.092 252.395 218.368 253.017 217.607L251.455 214.932Z" fill="#E52031"/>
</g>
</g>
<defs>
<linearGradient id="paint0_linear_1372_1964" x1="5.47705" y1="315.998" x2="15.2157" y2="315.998" gradientUnits="userSpaceOnUse">
<stop stop-color="#F1AE2E"/>
<stop offset="1" stop-color="#EC8D2E"/>
</linearGradient>
<linearGradient id="paint1_linear_1372_1964" x1="21.7871" y1="332.528" x2="28.9817" y2="332.528" gradientUnits="userSpaceOnUse">
<stop stop-color="#F1AE2E"/>
<stop offset="1" stop-color="#EC8D2E"/>
</linearGradient>
<linearGradient id="paint2_linear_1372_1964" x1="32.085" y1="394.758" x2="37.2227" y2="394.758" gradientUnits="userSpaceOnUse">
<stop stop-color="#F1AE2E"/>
<stop offset="1" stop-color="#EC8D2E"/>
</linearGradient>
<linearGradient id="paint3_linear_1372_1964" x1="38.502" y1="373.971" x2="39.7893" y2="373.971" gradientUnits="userSpaceOnUse">
<stop stop-color="#F1AE2E"/>
<stop offset="1" stop-color="#EC8D2E"/>
</linearGradient>
<linearGradient id="paint4_linear_1372_1964" x1="18.6689" y1="411.88" x2="26.9545" y2="411.88" gradientUnits="userSpaceOnUse">
<stop stop-color="#F1AE2E"/>
<stop offset="1" stop-color="#EC8D2E"/>
</linearGradient>
<linearGradient id="paint5_linear_1372_1964" x1="33.2583" y1="352.407" x2="37.8334" y2="352.407" gradientUnits="userSpaceOnUse">
<stop stop-color="#F1AE2E"/>
<stop offset="1" stop-color="#EC8D2E"/>
</linearGradient>
<linearGradient id="paint6_linear_1372_1964" x1="0.692383" y1="423.86" x2="10.9706" y2="423.86" gradientUnits="userSpaceOnUse">
<stop stop-color="#F1AE2E"/>
<stop offset="1" stop-color="#EC8D2E"/>
</linearGradient>
<linearGradient id="paint7_linear_1372_1964" x1="321.909" y1="584.346" x2="388.201" y2="584.346" gradientUnits="userSpaceOnUse">
<stop stop-color="#E56768"/>
<stop offset="1" stop-color="#C8394E"/>
</linearGradient>
<linearGradient id="paint8_linear_1372_1964" x1="203.647" y1="129.523" x2="311.882" y2="491.724" gradientUnits="userSpaceOnUse">
<stop stop-color="#F0AC2C"/>
<stop offset="1" stop-color="#EC8C2C"/>
</linearGradient>
<clipPath id="clip0_1372_1964">
<rect width="480" height="631" fill="white"/>
</clipPath>
</defs>
</svg>
